<mxfile host="draw.nlevi.dev" modified="2024-12-25T10:50:06.182Z" agent="Mozilla/5.0 (X11; Ubuntu; Linux x86_64; rv:133.0) Gecko/20100101 Firefox/133.0" etag="XlrezzCaOdm4Czehxh5T" version="24.2.5" type="device">
  <diagram name="Page-1" id="mrNRTL21qUsjW5cF0Whh">
    <mxGraphModel dx="2074" dy="718" grid="1" gridSize="10" guides="1" tooltips="1" connect="1" arrows="1" fold="1" page="1" pageScale="1" pageWidth="850" pageHeight="1100" math="0" shadow="0">
      <root>
        <mxCell id="0" />
        <mxCell id="1" parent="0" />
        <mxCell id="pjTEBmYC1_ZTYM2vS1I1-1905" value="" style="group" parent="1" vertex="1" connectable="0">
          <mxGeometry x="180" y="231" width="600" height="637.5" as="geometry" />
        </mxCell>
        <mxCell id="pjTEBmYC1_ZTYM2vS1I1-1589" value="" style="group" parent="pjTEBmYC1_ZTYM2vS1I1-1905" vertex="1" connectable="0">
          <mxGeometry x="30" width="350" height="477.5" as="geometry" />
        </mxCell>
        <mxCell id="pjTEBmYC1_ZTYM2vS1I1-1485" value="" style="group;opacity=30;" parent="pjTEBmYC1_ZTYM2vS1I1-1589" vertex="1" connectable="0">
          <mxGeometry x="20" y="17.5" width="330" height="460" as="geometry" />
        </mxCell>
        <mxCell id="pjTEBmYC1_ZTYM2vS1I1-1486" value="" style="rounded=0;whiteSpace=wrap;html=1;strokeColor=none;" parent="pjTEBmYC1_ZTYM2vS1I1-1485" vertex="1">
          <mxGeometry x="-20" y="-20" width="320" height="480" as="geometry" />
        </mxCell>
        <mxCell id="pjTEBmYC1_ZTYM2vS1I1-1487" value="" style="strokeWidth=2;html=1;shape=mxgraph.flowchart.annotation_1;align=left;pointerEvents=1;fillColor=none;opacity=30;" parent="pjTEBmYC1_ZTYM2vS1I1-1485" vertex="1">
          <mxGeometry width="30" height="140" as="geometry" />
        </mxCell>
        <mxCell id="pjTEBmYC1_ZTYM2vS1I1-1488" value="" style="group;fillColor=none;opacity=30;" parent="pjTEBmYC1_ZTYM2vS1I1-1485" vertex="1" connectable="0">
          <mxGeometry x="70" y="20" width="110" height="122.5" as="geometry" />
        </mxCell>
        <mxCell id="pjTEBmYC1_ZTYM2vS1I1-1489" value="" style="strokeWidth=2;html=1;shape=mxgraph.flowchart.annotation_1;align=left;pointerEvents=1;fillColor=none;opacity=30;" parent="pjTEBmYC1_ZTYM2vS1I1-1488" vertex="1">
          <mxGeometry width="10" height="100" as="geometry" />
        </mxCell>
        <mxCell id="pjTEBmYC1_ZTYM2vS1I1-1490" value="" style="strokeWidth=2;html=1;shape=mxgraph.flowchart.annotation_1;align=left;pointerEvents=1;rotation=-180;fillColor=none;opacity=30;" parent="pjTEBmYC1_ZTYM2vS1I1-1488" vertex="1">
          <mxGeometry x="30" width="10" height="100" as="geometry" />
        </mxCell>
        <mxCell id="pjTEBmYC1_ZTYM2vS1I1-1491" value="" style="rounded=1;whiteSpace=wrap;html=1;absoluteArcSize=1;arcSize=14;strokeWidth=2;fillColor=none;opacity=30;" parent="pjTEBmYC1_ZTYM2vS1I1-1488" vertex="1">
          <mxGeometry x="10" y="10" width="20" height="20" as="geometry" />
        </mxCell>
        <mxCell id="pjTEBmYC1_ZTYM2vS1I1-1492" value="" style="rounded=1;whiteSpace=wrap;html=1;absoluteArcSize=1;arcSize=14;strokeWidth=2;fillColor=none;opacity=30;" parent="pjTEBmYC1_ZTYM2vS1I1-1488" vertex="1">
          <mxGeometry x="10" y="40" width="20" height="20" as="geometry" />
        </mxCell>
        <mxCell id="pjTEBmYC1_ZTYM2vS1I1-1493" value="" style="rounded=1;whiteSpace=wrap;html=1;absoluteArcSize=1;arcSize=14;strokeWidth=2;fillColor=none;opacity=30;" parent="pjTEBmYC1_ZTYM2vS1I1-1488" vertex="1">
          <mxGeometry x="10" y="70" width="20" height="20" as="geometry" />
        </mxCell>
        <mxCell id="pjTEBmYC1_ZTYM2vS1I1-1494" value="" style="group;fillColor=none;opacity=30;" parent="pjTEBmYC1_ZTYM2vS1I1-1485" vertex="1" connectable="0">
          <mxGeometry x="120" y="20" width="160" height="122.5" as="geometry" />
        </mxCell>
        <mxCell id="pjTEBmYC1_ZTYM2vS1I1-1495" value="" style="strokeWidth=2;html=1;shape=mxgraph.flowchart.annotation_1;align=left;pointerEvents=1;fillColor=none;opacity=30;" parent="pjTEBmYC1_ZTYM2vS1I1-1494" vertex="1">
          <mxGeometry width="10" height="100" as="geometry" />
        </mxCell>
        <mxCell id="pjTEBmYC1_ZTYM2vS1I1-1496" value="" style="strokeWidth=2;html=1;shape=mxgraph.flowchart.annotation_1;align=left;pointerEvents=1;rotation=-180;fillColor=none;opacity=30;" parent="pjTEBmYC1_ZTYM2vS1I1-1494" vertex="1">
          <mxGeometry x="30" width="10" height="100" as="geometry" />
        </mxCell>
        <mxCell id="pjTEBmYC1_ZTYM2vS1I1-1497" value="" style="rounded=1;whiteSpace=wrap;html=1;absoluteArcSize=1;arcSize=14;strokeWidth=2;fillColor=none;opacity=30;" parent="pjTEBmYC1_ZTYM2vS1I1-1494" vertex="1">
          <mxGeometry x="10" y="10" width="20" height="20" as="geometry" />
        </mxCell>
        <mxCell id="pjTEBmYC1_ZTYM2vS1I1-1498" value="" style="rounded=1;whiteSpace=wrap;html=1;absoluteArcSize=1;arcSize=14;strokeWidth=2;fillColor=none;opacity=30;" parent="pjTEBmYC1_ZTYM2vS1I1-1494" vertex="1">
          <mxGeometry x="10" y="40" width="20" height="20" as="geometry" />
        </mxCell>
        <mxCell id="pjTEBmYC1_ZTYM2vS1I1-1499" value="" style="rounded=1;whiteSpace=wrap;html=1;absoluteArcSize=1;arcSize=14;strokeWidth=2;fillColor=none;opacity=30;" parent="pjTEBmYC1_ZTYM2vS1I1-1494" vertex="1">
          <mxGeometry x="10" y="70" width="20" height="20" as="geometry" />
        </mxCell>
        <mxCell id="pjTEBmYC1_ZTYM2vS1I1-1500" value="" style="group;fillColor=none;opacity=30;" parent="pjTEBmYC1_ZTYM2vS1I1-1494" vertex="1" connectable="0">
          <mxGeometry x="50" width="110" height="122.5" as="geometry" />
        </mxCell>
        <mxCell id="pjTEBmYC1_ZTYM2vS1I1-1501" value="" style="strokeWidth=2;html=1;shape=mxgraph.flowchart.annotation_1;align=left;pointerEvents=1;fillColor=none;opacity=30;" parent="pjTEBmYC1_ZTYM2vS1I1-1500" vertex="1">
          <mxGeometry width="10" height="100" as="geometry" />
        </mxCell>
        <mxCell id="pjTEBmYC1_ZTYM2vS1I1-1502" value="" style="strokeWidth=2;html=1;shape=mxgraph.flowchart.annotation_1;align=left;pointerEvents=1;rotation=-180;fillColor=none;opacity=30;" parent="pjTEBmYC1_ZTYM2vS1I1-1500" vertex="1">
          <mxGeometry x="30" width="10" height="100" as="geometry" />
        </mxCell>
        <mxCell id="pjTEBmYC1_ZTYM2vS1I1-1503" value="" style="rounded=1;whiteSpace=wrap;html=1;absoluteArcSize=1;arcSize=14;strokeWidth=2;fillColor=none;opacity=30;" parent="pjTEBmYC1_ZTYM2vS1I1-1500" vertex="1">
          <mxGeometry x="10" y="10" width="20" height="20" as="geometry" />
        </mxCell>
        <mxCell id="pjTEBmYC1_ZTYM2vS1I1-1504" value="" style="rounded=1;whiteSpace=wrap;html=1;absoluteArcSize=1;arcSize=14;strokeWidth=2;fillColor=none;opacity=30;" parent="pjTEBmYC1_ZTYM2vS1I1-1500" vertex="1">
          <mxGeometry x="10" y="40" width="20" height="20" as="geometry" />
        </mxCell>
        <mxCell id="pjTEBmYC1_ZTYM2vS1I1-1505" value="" style="rounded=1;whiteSpace=wrap;html=1;absoluteArcSize=1;arcSize=14;strokeWidth=2;fillColor=none;direction=south;opacity=30;" parent="pjTEBmYC1_ZTYM2vS1I1-1500" vertex="1">
          <mxGeometry x="10" y="70" width="20" height="20" as="geometry" />
        </mxCell>
        <mxCell id="pjTEBmYC1_ZTYM2vS1I1-1506" value="" style="group;fillColor=none;opacity=30;" parent="pjTEBmYC1_ZTYM2vS1I1-1485" vertex="1" connectable="0">
          <mxGeometry x="20" y="20" width="110" height="122.5" as="geometry" />
        </mxCell>
        <mxCell id="pjTEBmYC1_ZTYM2vS1I1-1507" value="" style="strokeWidth=2;html=1;shape=mxgraph.flowchart.annotation_1;align=left;pointerEvents=1;fillColor=none;opacity=30;" parent="pjTEBmYC1_ZTYM2vS1I1-1506" vertex="1">
          <mxGeometry width="10" height="100" as="geometry" />
        </mxCell>
        <mxCell id="pjTEBmYC1_ZTYM2vS1I1-1508" value="" style="strokeWidth=2;html=1;shape=mxgraph.flowchart.annotation_1;align=left;pointerEvents=1;rotation=-180;fillColor=none;opacity=30;" parent="pjTEBmYC1_ZTYM2vS1I1-1506" vertex="1">
          <mxGeometry x="30" width="10" height="100" as="geometry" />
        </mxCell>
        <mxCell id="pjTEBmYC1_ZTYM2vS1I1-1509" value="" style="rounded=1;whiteSpace=wrap;html=1;absoluteArcSize=1;arcSize=14;strokeWidth=2;fillColor=none;opacity=30;" parent="pjTEBmYC1_ZTYM2vS1I1-1506" vertex="1">
          <mxGeometry x="10" y="10" width="20" height="20" as="geometry" />
        </mxCell>
        <mxCell id="pjTEBmYC1_ZTYM2vS1I1-1510" value="" style="rounded=1;whiteSpace=wrap;html=1;absoluteArcSize=1;arcSize=14;strokeWidth=2;fillColor=none;opacity=30;" parent="pjTEBmYC1_ZTYM2vS1I1-1506" vertex="1">
          <mxGeometry x="10" y="40" width="20" height="20" as="geometry" />
        </mxCell>
        <mxCell id="pjTEBmYC1_ZTYM2vS1I1-1511" value="" style="rounded=1;whiteSpace=wrap;html=1;absoluteArcSize=1;arcSize=14;strokeWidth=2;fillColor=none;opacity=30;" parent="pjTEBmYC1_ZTYM2vS1I1-1506" vertex="1">
          <mxGeometry x="10" y="70" width="20" height="20" as="geometry" />
        </mxCell>
        <mxCell id="pjTEBmYC1_ZTYM2vS1I1-1512" value="" style="group;fillColor=none;opacity=30;" parent="pjTEBmYC1_ZTYM2vS1I1-1485" vertex="1" connectable="0">
          <mxGeometry x="220" y="20" width="110" height="122.5" as="geometry" />
        </mxCell>
        <mxCell id="pjTEBmYC1_ZTYM2vS1I1-1513" value="" style="strokeWidth=2;html=1;shape=mxgraph.flowchart.annotation_1;align=left;pointerEvents=1;fillColor=none;opacity=30;" parent="pjTEBmYC1_ZTYM2vS1I1-1512" vertex="1">
          <mxGeometry width="10" height="100" as="geometry" />
        </mxCell>
        <mxCell id="pjTEBmYC1_ZTYM2vS1I1-1514" value="" style="strokeWidth=2;html=1;shape=mxgraph.flowchart.annotation_1;align=left;pointerEvents=1;rotation=-180;fillColor=none;opacity=30;" parent="pjTEBmYC1_ZTYM2vS1I1-1512" vertex="1">
          <mxGeometry x="30" width="10" height="100" as="geometry" />
        </mxCell>
        <mxCell id="pjTEBmYC1_ZTYM2vS1I1-1515" value="" style="rounded=1;whiteSpace=wrap;html=1;absoluteArcSize=1;arcSize=14;strokeWidth=2;fillColor=none;opacity=30;" parent="pjTEBmYC1_ZTYM2vS1I1-1512" vertex="1">
          <mxGeometry x="10" y="10" width="20" height="20" as="geometry" />
        </mxCell>
        <mxCell id="pjTEBmYC1_ZTYM2vS1I1-1516" value="" style="rounded=1;whiteSpace=wrap;html=1;absoluteArcSize=1;arcSize=14;strokeWidth=2;fillColor=none;opacity=30;" parent="pjTEBmYC1_ZTYM2vS1I1-1512" vertex="1">
          <mxGeometry x="10" y="40" width="20" height="20" as="geometry" />
        </mxCell>
        <mxCell id="pjTEBmYC1_ZTYM2vS1I1-1517" value="" style="rounded=1;whiteSpace=wrap;html=1;absoluteArcSize=1;arcSize=14;strokeWidth=2;fillColor=none;opacity=30;" parent="pjTEBmYC1_ZTYM2vS1I1-1512" vertex="1">
          <mxGeometry x="10" y="70" width="20" height="20" as="geometry" />
        </mxCell>
        <mxCell id="pjTEBmYC1_ZTYM2vS1I1-1518" value="" style="strokeWidth=2;html=1;shape=mxgraph.flowchart.annotation_1;align=left;pointerEvents=1;fillColor=none;rotation=-180;opacity=30;" parent="pjTEBmYC1_ZTYM2vS1I1-1512" vertex="1">
          <mxGeometry x="30" y="-20" width="30" height="140" as="geometry" />
        </mxCell>
        <mxCell id="pjTEBmYC1_ZTYM2vS1I1-1519" value="" style="group;opacity=30;" parent="pjTEBmYC1_ZTYM2vS1I1-1589" vertex="1" connectable="0">
          <mxGeometry x="20" y="167.5" width="330" height="307.5" as="geometry" />
        </mxCell>
        <mxCell id="pjTEBmYC1_ZTYM2vS1I1-1520" value="" style="rounded=0;whiteSpace=wrap;html=1;strokeColor=none;opacity=30;" parent="pjTEBmYC1_ZTYM2vS1I1-1519" vertex="1">
          <mxGeometry width="280" height="140" as="geometry" />
        </mxCell>
        <mxCell id="pjTEBmYC1_ZTYM2vS1I1-1521" value="" style="strokeWidth=2;html=1;shape=mxgraph.flowchart.annotation_1;align=left;pointerEvents=1;fillColor=none;opacity=30;" parent="pjTEBmYC1_ZTYM2vS1I1-1519" vertex="1">
          <mxGeometry width="30" height="140" as="geometry" />
        </mxCell>
        <mxCell id="pjTEBmYC1_ZTYM2vS1I1-1522" value="" style="group;fillColor=none;opacity=30;" parent="pjTEBmYC1_ZTYM2vS1I1-1519" vertex="1" connectable="0">
          <mxGeometry x="70" y="20" width="110" height="122.5" as="geometry" />
        </mxCell>
        <mxCell id="pjTEBmYC1_ZTYM2vS1I1-1523" value="" style="strokeWidth=2;html=1;shape=mxgraph.flowchart.annotation_1;align=left;pointerEvents=1;fillColor=none;opacity=30;" parent="pjTEBmYC1_ZTYM2vS1I1-1522" vertex="1">
          <mxGeometry width="10" height="100" as="geometry" />
        </mxCell>
        <mxCell id="pjTEBmYC1_ZTYM2vS1I1-1524" value="" style="strokeWidth=2;html=1;shape=mxgraph.flowchart.annotation_1;align=left;pointerEvents=1;rotation=-180;fillColor=none;opacity=30;" parent="pjTEBmYC1_ZTYM2vS1I1-1522" vertex="1">
          <mxGeometry x="30" width="10" height="100" as="geometry" />
        </mxCell>
        <mxCell id="pjTEBmYC1_ZTYM2vS1I1-1525" value="" style="rounded=1;whiteSpace=wrap;html=1;absoluteArcSize=1;arcSize=14;strokeWidth=2;fillColor=none;opacity=30;" parent="pjTEBmYC1_ZTYM2vS1I1-1522" vertex="1">
          <mxGeometry x="10" y="10" width="20" height="20" as="geometry" />
        </mxCell>
        <mxCell id="pjTEBmYC1_ZTYM2vS1I1-1526" value="" style="rounded=1;whiteSpace=wrap;html=1;absoluteArcSize=1;arcSize=14;strokeWidth=2;fillColor=none;opacity=30;" parent="pjTEBmYC1_ZTYM2vS1I1-1522" vertex="1">
          <mxGeometry x="10" y="40" width="20" height="20" as="geometry" />
        </mxCell>
        <mxCell id="pjTEBmYC1_ZTYM2vS1I1-1527" value="" style="rounded=1;whiteSpace=wrap;html=1;absoluteArcSize=1;arcSize=14;strokeWidth=2;fillColor=none;opacity=30;" parent="pjTEBmYC1_ZTYM2vS1I1-1522" vertex="1">
          <mxGeometry x="10" y="70" width="20" height="20" as="geometry" />
        </mxCell>
        <mxCell id="pjTEBmYC1_ZTYM2vS1I1-1528" value="" style="group;fillColor=none;opacity=30;" parent="pjTEBmYC1_ZTYM2vS1I1-1519" vertex="1" connectable="0">
          <mxGeometry x="120" y="20" width="160" height="122.5" as="geometry" />
        </mxCell>
        <mxCell id="pjTEBmYC1_ZTYM2vS1I1-1529" value="" style="strokeWidth=2;html=1;shape=mxgraph.flowchart.annotation_1;align=left;pointerEvents=1;fillColor=none;opacity=30;" parent="pjTEBmYC1_ZTYM2vS1I1-1528" vertex="1">
          <mxGeometry width="10" height="100" as="geometry" />
        </mxCell>
        <mxCell id="pjTEBmYC1_ZTYM2vS1I1-1530" value="" style="strokeWidth=2;html=1;shape=mxgraph.flowchart.annotation_1;align=left;pointerEvents=1;rotation=-180;fillColor=none;opacity=30;" parent="pjTEBmYC1_ZTYM2vS1I1-1528" vertex="1">
          <mxGeometry x="30" width="10" height="100" as="geometry" />
        </mxCell>
        <mxCell id="pjTEBmYC1_ZTYM2vS1I1-1531" value="" style="rounded=1;whiteSpace=wrap;html=1;absoluteArcSize=1;arcSize=14;strokeWidth=2;fillColor=none;opacity=30;" parent="pjTEBmYC1_ZTYM2vS1I1-1528" vertex="1">
          <mxGeometry x="10" y="10" width="20" height="20" as="geometry" />
        </mxCell>
        <mxCell id="pjTEBmYC1_ZTYM2vS1I1-1532" value="" style="rounded=1;whiteSpace=wrap;html=1;absoluteArcSize=1;arcSize=14;strokeWidth=2;fillColor=none;opacity=30;" parent="pjTEBmYC1_ZTYM2vS1I1-1528" vertex="1">
          <mxGeometry x="10" y="40" width="20" height="20" as="geometry" />
        </mxCell>
        <mxCell id="pjTEBmYC1_ZTYM2vS1I1-1533" value="" style="rounded=1;whiteSpace=wrap;html=1;absoluteArcSize=1;arcSize=14;strokeWidth=2;fillColor=none;opacity=30;" parent="pjTEBmYC1_ZTYM2vS1I1-1528" vertex="1">
          <mxGeometry x="10" y="70" width="20" height="20" as="geometry" />
        </mxCell>
        <mxCell id="pjTEBmYC1_ZTYM2vS1I1-1534" value="" style="group;fillColor=none;opacity=30;" parent="pjTEBmYC1_ZTYM2vS1I1-1528" vertex="1" connectable="0">
          <mxGeometry x="50" width="110" height="122.5" as="geometry" />
        </mxCell>
        <mxCell id="pjTEBmYC1_ZTYM2vS1I1-1535" value="" style="strokeWidth=2;html=1;shape=mxgraph.flowchart.annotation_1;align=left;pointerEvents=1;fillColor=none;opacity=30;" parent="pjTEBmYC1_ZTYM2vS1I1-1534" vertex="1">
          <mxGeometry width="10" height="100" as="geometry" />
        </mxCell>
        <mxCell id="pjTEBmYC1_ZTYM2vS1I1-1536" value="" style="strokeWidth=2;html=1;shape=mxgraph.flowchart.annotation_1;align=left;pointerEvents=1;rotation=-180;fillColor=none;opacity=30;" parent="pjTEBmYC1_ZTYM2vS1I1-1534" vertex="1">
          <mxGeometry x="30" width="10" height="100" as="geometry" />
        </mxCell>
        <mxCell id="pjTEBmYC1_ZTYM2vS1I1-1537" value="" style="rounded=1;whiteSpace=wrap;html=1;absoluteArcSize=1;arcSize=14;strokeWidth=2;fillColor=none;opacity=30;" parent="pjTEBmYC1_ZTYM2vS1I1-1534" vertex="1">
          <mxGeometry x="10" y="10" width="20" height="20" as="geometry" />
        </mxCell>
        <mxCell id="pjTEBmYC1_ZTYM2vS1I1-1538" value="" style="rounded=1;whiteSpace=wrap;html=1;absoluteArcSize=1;arcSize=14;strokeWidth=2;fillColor=none;opacity=30;" parent="pjTEBmYC1_ZTYM2vS1I1-1534" vertex="1">
          <mxGeometry x="10" y="40" width="20" height="20" as="geometry" />
        </mxCell>
        <mxCell id="pjTEBmYC1_ZTYM2vS1I1-1539" value="" style="rounded=1;whiteSpace=wrap;html=1;absoluteArcSize=1;arcSize=14;strokeWidth=2;fillColor=none;direction=south;opacity=30;" parent="pjTEBmYC1_ZTYM2vS1I1-1534" vertex="1">
          <mxGeometry x="10" y="70" width="20" height="20" as="geometry" />
        </mxCell>
        <mxCell id="pjTEBmYC1_ZTYM2vS1I1-1540" value="" style="group;fillColor=none;opacity=30;" parent="pjTEBmYC1_ZTYM2vS1I1-1519" vertex="1" connectable="0">
          <mxGeometry x="20" y="20" width="110" height="122.5" as="geometry" />
        </mxCell>
        <mxCell id="pjTEBmYC1_ZTYM2vS1I1-1541" value="" style="strokeWidth=2;html=1;shape=mxgraph.flowchart.annotation_1;align=left;pointerEvents=1;fillColor=none;opacity=30;" parent="pjTEBmYC1_ZTYM2vS1I1-1540" vertex="1">
          <mxGeometry width="10" height="100" as="geometry" />
        </mxCell>
        <mxCell id="pjTEBmYC1_ZTYM2vS1I1-1542" value="" style="strokeWidth=2;html=1;shape=mxgraph.flowchart.annotation_1;align=left;pointerEvents=1;rotation=-180;fillColor=none;opacity=30;" parent="pjTEBmYC1_ZTYM2vS1I1-1540" vertex="1">
          <mxGeometry x="30" width="10" height="100" as="geometry" />
        </mxCell>
        <mxCell id="pjTEBmYC1_ZTYM2vS1I1-1543" value="" style="rounded=1;whiteSpace=wrap;html=1;absoluteArcSize=1;arcSize=14;strokeWidth=2;fillColor=none;opacity=30;" parent="pjTEBmYC1_ZTYM2vS1I1-1540" vertex="1">
          <mxGeometry x="10" y="10" width="20" height="20" as="geometry" />
        </mxCell>
        <mxCell id="pjTEBmYC1_ZTYM2vS1I1-1544" value="" style="rounded=1;whiteSpace=wrap;html=1;absoluteArcSize=1;arcSize=14;strokeWidth=2;fillColor=none;opacity=30;" parent="pjTEBmYC1_ZTYM2vS1I1-1540" vertex="1">
          <mxGeometry x="10" y="40" width="20" height="20" as="geometry" />
        </mxCell>
        <mxCell id="pjTEBmYC1_ZTYM2vS1I1-1545" value="" style="rounded=1;whiteSpace=wrap;html=1;absoluteArcSize=1;arcSize=14;strokeWidth=2;fillColor=none;opacity=30;" parent="pjTEBmYC1_ZTYM2vS1I1-1540" vertex="1">
          <mxGeometry x="10" y="70" width="20" height="20" as="geometry" />
        </mxCell>
        <mxCell id="pjTEBmYC1_ZTYM2vS1I1-1546" value="" style="group;fillColor=none;opacity=30;" parent="pjTEBmYC1_ZTYM2vS1I1-1519" vertex="1" connectable="0">
          <mxGeometry x="220" y="20" width="110" height="287.5" as="geometry" />
        </mxCell>
        <mxCell id="pjTEBmYC1_ZTYM2vS1I1-1547" value="" style="strokeWidth=2;html=1;shape=mxgraph.flowchart.annotation_1;align=left;pointerEvents=1;fillColor=none;opacity=30;" parent="pjTEBmYC1_ZTYM2vS1I1-1546" vertex="1">
          <mxGeometry width="10" height="100" as="geometry" />
        </mxCell>
        <mxCell id="pjTEBmYC1_ZTYM2vS1I1-1548" value="" style="strokeWidth=2;html=1;shape=mxgraph.flowchart.annotation_1;align=left;pointerEvents=1;rotation=-180;fillColor=none;opacity=30;" parent="pjTEBmYC1_ZTYM2vS1I1-1546" vertex="1">
          <mxGeometry x="30" width="10" height="100" as="geometry" />
        </mxCell>
        <mxCell id="pjTEBmYC1_ZTYM2vS1I1-1549" value="" style="rounded=1;whiteSpace=wrap;html=1;absoluteArcSize=1;arcSize=14;strokeWidth=2;fillColor=none;opacity=30;" parent="pjTEBmYC1_ZTYM2vS1I1-1546" vertex="1">
          <mxGeometry x="10" y="10" width="20" height="20" as="geometry" />
        </mxCell>
        <mxCell id="pjTEBmYC1_ZTYM2vS1I1-1550" value="" style="rounded=1;whiteSpace=wrap;html=1;absoluteArcSize=1;arcSize=14;strokeWidth=2;fillColor=none;opacity=30;" parent="pjTEBmYC1_ZTYM2vS1I1-1546" vertex="1">
          <mxGeometry x="10" y="40" width="20" height="20" as="geometry" />
        </mxCell>
        <mxCell id="pjTEBmYC1_ZTYM2vS1I1-1551" value="" style="rounded=1;whiteSpace=wrap;html=1;absoluteArcSize=1;arcSize=14;strokeWidth=2;fillColor=none;opacity=30;" parent="pjTEBmYC1_ZTYM2vS1I1-1546" vertex="1">
          <mxGeometry x="10" y="70" width="20" height="20" as="geometry" />
        </mxCell>
        <mxCell id="pjTEBmYC1_ZTYM2vS1I1-1552" value="" style="strokeWidth=2;html=1;shape=mxgraph.flowchart.annotation_1;align=left;pointerEvents=1;fillColor=none;rotation=-180;opacity=30;" parent="pjTEBmYC1_ZTYM2vS1I1-1546" vertex="1">
          <mxGeometry x="30" y="-20" width="30" height="140" as="geometry" />
        </mxCell>
        <mxCell id="pjTEBmYC1_ZTYM2vS1I1-1553" value="" style="strokeWidth=2;html=1;shape=mxgraph.flowchart.annotation_1;align=left;pointerEvents=1;rotation=-180;opacity=30;" parent="pjTEBmYC1_ZTYM2vS1I1-1546" vertex="1">
          <mxGeometry x="30" y="-190" width="50" height="477.5" as="geometry" />
        </mxCell>
        <mxCell id="pjTEBmYC1_ZTYM2vS1I1-1554" value="" style="group;opacity=30;" parent="pjTEBmYC1_ZTYM2vS1I1-1589" vertex="1" connectable="0">
          <mxGeometry x="20" y="317.5" width="330" height="142.5" as="geometry" />
        </mxCell>
        <mxCell id="pjTEBmYC1_ZTYM2vS1I1-1555" value="" style="rounded=0;whiteSpace=wrap;html=1;strokeColor=none;opacity=30;" parent="pjTEBmYC1_ZTYM2vS1I1-1554" vertex="1">
          <mxGeometry width="280" height="140" as="geometry" />
        </mxCell>
        <mxCell id="pjTEBmYC1_ZTYM2vS1I1-1556" value="" style="strokeWidth=2;html=1;shape=mxgraph.flowchart.annotation_1;align=left;pointerEvents=1;fillColor=none;opacity=30;" parent="pjTEBmYC1_ZTYM2vS1I1-1554" vertex="1">
          <mxGeometry width="30" height="140" as="geometry" />
        </mxCell>
        <mxCell id="pjTEBmYC1_ZTYM2vS1I1-1557" value="" style="group;fillColor=none;opacity=30;" parent="pjTEBmYC1_ZTYM2vS1I1-1554" vertex="1" connectable="0">
          <mxGeometry x="70" y="20" width="110" height="122.5" as="geometry" />
        </mxCell>
        <mxCell id="pjTEBmYC1_ZTYM2vS1I1-1558" value="" style="strokeWidth=2;html=1;shape=mxgraph.flowchart.annotation_1;align=left;pointerEvents=1;fillColor=none;opacity=30;" parent="pjTEBmYC1_ZTYM2vS1I1-1557" vertex="1">
          <mxGeometry width="10" height="100" as="geometry" />
        </mxCell>
        <mxCell id="pjTEBmYC1_ZTYM2vS1I1-1559" value="" style="strokeWidth=2;html=1;shape=mxgraph.flowchart.annotation_1;align=left;pointerEvents=1;rotation=-180;fillColor=none;opacity=30;" parent="pjTEBmYC1_ZTYM2vS1I1-1557" vertex="1">
          <mxGeometry x="30" width="10" height="100" as="geometry" />
        </mxCell>
        <mxCell id="pjTEBmYC1_ZTYM2vS1I1-1560" value="" style="rounded=1;whiteSpace=wrap;html=1;absoluteArcSize=1;arcSize=14;strokeWidth=2;fillColor=none;opacity=30;" parent="pjTEBmYC1_ZTYM2vS1I1-1557" vertex="1">
          <mxGeometry x="10" y="10" width="20" height="20" as="geometry" />
        </mxCell>
        <mxCell id="pjTEBmYC1_ZTYM2vS1I1-1561" value="" style="rounded=1;whiteSpace=wrap;html=1;absoluteArcSize=1;arcSize=14;strokeWidth=2;fillColor=none;opacity=30;" parent="pjTEBmYC1_ZTYM2vS1I1-1557" vertex="1">
          <mxGeometry x="10" y="40" width="20" height="20" as="geometry" />
        </mxCell>
        <mxCell id="pjTEBmYC1_ZTYM2vS1I1-1562" value="" style="rounded=1;whiteSpace=wrap;html=1;absoluteArcSize=1;arcSize=14;strokeWidth=2;fillColor=none;opacity=30;" parent="pjTEBmYC1_ZTYM2vS1I1-1557" vertex="1">
          <mxGeometry x="10" y="70" width="20" height="20" as="geometry" />
        </mxCell>
        <mxCell id="pjTEBmYC1_ZTYM2vS1I1-1563" value="" style="group;fillColor=none;opacity=30;" parent="pjTEBmYC1_ZTYM2vS1I1-1554" vertex="1" connectable="0">
          <mxGeometry x="120" y="20" width="160" height="122.5" as="geometry" />
        </mxCell>
        <mxCell id="pjTEBmYC1_ZTYM2vS1I1-1564" value="" style="strokeWidth=2;html=1;shape=mxgraph.flowchart.annotation_1;align=left;pointerEvents=1;fillColor=none;opacity=30;" parent="pjTEBmYC1_ZTYM2vS1I1-1563" vertex="1">
          <mxGeometry width="10" height="100" as="geometry" />
        </mxCell>
        <mxCell id="pjTEBmYC1_ZTYM2vS1I1-1565" value="" style="strokeWidth=2;html=1;shape=mxgraph.flowchart.annotation_1;align=left;pointerEvents=1;rotation=-180;fillColor=none;opacity=30;" parent="pjTEBmYC1_ZTYM2vS1I1-1563" vertex="1">
          <mxGeometry x="30" width="10" height="100" as="geometry" />
        </mxCell>
        <mxCell id="pjTEBmYC1_ZTYM2vS1I1-1566" value="" style="rounded=1;whiteSpace=wrap;html=1;absoluteArcSize=1;arcSize=14;strokeWidth=2;fillColor=none;opacity=30;" parent="pjTEBmYC1_ZTYM2vS1I1-1563" vertex="1">
          <mxGeometry x="10" y="10" width="20" height="20" as="geometry" />
        </mxCell>
        <mxCell id="pjTEBmYC1_ZTYM2vS1I1-1567" value="" style="rounded=1;whiteSpace=wrap;html=1;absoluteArcSize=1;arcSize=14;strokeWidth=2;fillColor=none;opacity=30;" parent="pjTEBmYC1_ZTYM2vS1I1-1563" vertex="1">
          <mxGeometry x="10" y="40" width="20" height="20" as="geometry" />
        </mxCell>
        <mxCell id="pjTEBmYC1_ZTYM2vS1I1-1568" value="" style="rounded=1;whiteSpace=wrap;html=1;absoluteArcSize=1;arcSize=14;strokeWidth=2;fillColor=none;opacity=30;" parent="pjTEBmYC1_ZTYM2vS1I1-1563" vertex="1">
          <mxGeometry x="10" y="70" width="20" height="20" as="geometry" />
        </mxCell>
        <mxCell id="pjTEBmYC1_ZTYM2vS1I1-1569" value="" style="group;fillColor=none;opacity=30;" parent="pjTEBmYC1_ZTYM2vS1I1-1563" vertex="1" connectable="0">
          <mxGeometry x="50" width="110" height="122.5" as="geometry" />
        </mxCell>
        <mxCell id="pjTEBmYC1_ZTYM2vS1I1-1570" value="" style="strokeWidth=2;html=1;shape=mxgraph.flowchart.annotation_1;align=left;pointerEvents=1;fillColor=none;opacity=30;" parent="pjTEBmYC1_ZTYM2vS1I1-1569" vertex="1">
          <mxGeometry width="10" height="100" as="geometry" />
        </mxCell>
        <mxCell id="pjTEBmYC1_ZTYM2vS1I1-1571" value="" style="strokeWidth=2;html=1;shape=mxgraph.flowchart.annotation_1;align=left;pointerEvents=1;rotation=-180;fillColor=none;opacity=30;" parent="pjTEBmYC1_ZTYM2vS1I1-1569" vertex="1">
          <mxGeometry x="30" width="10" height="100" as="geometry" />
        </mxCell>
        <mxCell id="pjTEBmYC1_ZTYM2vS1I1-1572" value="" style="rounded=1;whiteSpace=wrap;html=1;absoluteArcSize=1;arcSize=14;strokeWidth=2;fillColor=none;opacity=30;" parent="pjTEBmYC1_ZTYM2vS1I1-1569" vertex="1">
          <mxGeometry x="10" y="10" width="20" height="20" as="geometry" />
        </mxCell>
        <mxCell id="pjTEBmYC1_ZTYM2vS1I1-1573" value="" style="rounded=1;whiteSpace=wrap;html=1;absoluteArcSize=1;arcSize=14;strokeWidth=2;fillColor=none;opacity=30;" parent="pjTEBmYC1_ZTYM2vS1I1-1569" vertex="1">
          <mxGeometry x="10" y="40" width="20" height="20" as="geometry" />
        </mxCell>
        <mxCell id="pjTEBmYC1_ZTYM2vS1I1-1574" value="" style="rounded=1;whiteSpace=wrap;html=1;absoluteArcSize=1;arcSize=14;strokeWidth=2;fillColor=none;direction=south;opacity=30;" parent="pjTEBmYC1_ZTYM2vS1I1-1569" vertex="1">
          <mxGeometry x="10" y="70" width="20" height="20" as="geometry" />
        </mxCell>
        <mxCell id="pjTEBmYC1_ZTYM2vS1I1-1575" value="" style="group;fillColor=none;opacity=30;" parent="pjTEBmYC1_ZTYM2vS1I1-1554" vertex="1" connectable="0">
          <mxGeometry x="20" y="20" width="110" height="122.5" as="geometry" />
        </mxCell>
        <mxCell id="pjTEBmYC1_ZTYM2vS1I1-1576" value="" style="strokeWidth=2;html=1;shape=mxgraph.flowchart.annotation_1;align=left;pointerEvents=1;fillColor=none;opacity=30;" parent="pjTEBmYC1_ZTYM2vS1I1-1575" vertex="1">
          <mxGeometry width="10" height="100" as="geometry" />
        </mxCell>
        <mxCell id="pjTEBmYC1_ZTYM2vS1I1-1577" value="" style="strokeWidth=2;html=1;shape=mxgraph.flowchart.annotation_1;align=left;pointerEvents=1;rotation=-180;fillColor=none;opacity=30;" parent="pjTEBmYC1_ZTYM2vS1I1-1575" vertex="1">
          <mxGeometry x="30" width="10" height="100" as="geometry" />
        </mxCell>
        <mxCell id="pjTEBmYC1_ZTYM2vS1I1-1578" value="" style="rounded=1;whiteSpace=wrap;html=1;absoluteArcSize=1;arcSize=14;strokeWidth=2;fillColor=none;opacity=30;" parent="pjTEBmYC1_ZTYM2vS1I1-1575" vertex="1">
          <mxGeometry x="10" y="10" width="20" height="20" as="geometry" />
        </mxCell>
        <mxCell id="pjTEBmYC1_ZTYM2vS1I1-1579" value="" style="rounded=1;whiteSpace=wrap;html=1;absoluteArcSize=1;arcSize=14;strokeWidth=2;fillColor=none;opacity=30;" parent="pjTEBmYC1_ZTYM2vS1I1-1575" vertex="1">
          <mxGeometry x="10" y="40" width="20" height="20" as="geometry" />
        </mxCell>
        <mxCell id="pjTEBmYC1_ZTYM2vS1I1-1580" value="" style="rounded=1;whiteSpace=wrap;html=1;absoluteArcSize=1;arcSize=14;strokeWidth=2;fillColor=none;opacity=30;" parent="pjTEBmYC1_ZTYM2vS1I1-1575" vertex="1">
          <mxGeometry x="10" y="70" width="20" height="20" as="geometry" />
        </mxCell>
        <mxCell id="pjTEBmYC1_ZTYM2vS1I1-1581" value="" style="group;fillColor=none;opacity=30;" parent="pjTEBmYC1_ZTYM2vS1I1-1554" vertex="1" connectable="0">
          <mxGeometry x="220" y="20" width="110" height="122.5" as="geometry" />
        </mxCell>
        <mxCell id="pjTEBmYC1_ZTYM2vS1I1-1582" value="" style="strokeWidth=2;html=1;shape=mxgraph.flowchart.annotation_1;align=left;pointerEvents=1;fillColor=none;opacity=30;" parent="pjTEBmYC1_ZTYM2vS1I1-1581" vertex="1">
          <mxGeometry width="10" height="100" as="geometry" />
        </mxCell>
        <mxCell id="pjTEBmYC1_ZTYM2vS1I1-1583" value="" style="strokeWidth=2;html=1;shape=mxgraph.flowchart.annotation_1;align=left;pointerEvents=1;rotation=-180;fillColor=none;opacity=30;" parent="pjTEBmYC1_ZTYM2vS1I1-1581" vertex="1">
          <mxGeometry x="30" width="10" height="100" as="geometry" />
        </mxCell>
        <mxCell id="pjTEBmYC1_ZTYM2vS1I1-1584" value="" style="rounded=1;whiteSpace=wrap;html=1;absoluteArcSize=1;arcSize=14;strokeWidth=2;fillColor=none;opacity=30;" parent="pjTEBmYC1_ZTYM2vS1I1-1581" vertex="1">
          <mxGeometry x="10" y="10" width="20" height="20" as="geometry" />
        </mxCell>
        <mxCell id="pjTEBmYC1_ZTYM2vS1I1-1585" value="" style="rounded=1;whiteSpace=wrap;html=1;absoluteArcSize=1;arcSize=14;strokeWidth=2;fillColor=none;opacity=30;" parent="pjTEBmYC1_ZTYM2vS1I1-1581" vertex="1">
          <mxGeometry x="10" y="40" width="20" height="20" as="geometry" />
        </mxCell>
        <mxCell id="pjTEBmYC1_ZTYM2vS1I1-1586" value="" style="rounded=1;whiteSpace=wrap;html=1;absoluteArcSize=1;arcSize=14;strokeWidth=2;fillColor=none;opacity=30;" parent="pjTEBmYC1_ZTYM2vS1I1-1581" vertex="1">
          <mxGeometry x="10" y="70" width="20" height="20" as="geometry" />
        </mxCell>
        <mxCell id="pjTEBmYC1_ZTYM2vS1I1-1587" value="" style="strokeWidth=2;html=1;shape=mxgraph.flowchart.annotation_1;align=left;pointerEvents=1;fillColor=none;rotation=-180;opacity=30;" parent="pjTEBmYC1_ZTYM2vS1I1-1581" vertex="1">
          <mxGeometry x="30" y="-20" width="30" height="140" as="geometry" />
        </mxCell>
        <mxCell id="pjTEBmYC1_ZTYM2vS1I1-1588" value="" style="strokeWidth=2;html=1;shape=mxgraph.flowchart.annotation_1;align=left;pointerEvents=1;opacity=30;" parent="pjTEBmYC1_ZTYM2vS1I1-1589" vertex="1">
          <mxGeometry width="50" height="477.5" as="geometry" />
        </mxCell>
        <mxCell id="pjTEBmYC1_ZTYM2vS1I1-1590" value="" style="group" parent="pjTEBmYC1_ZTYM2vS1I1-1905" vertex="1" connectable="0">
          <mxGeometry x="20" y="10" width="350" height="477.5" as="geometry" />
        </mxCell>
        <mxCell id="pjTEBmYC1_ZTYM2vS1I1-1591" value="" style="group;opacity=30;" parent="pjTEBmYC1_ZTYM2vS1I1-1590" vertex="1" connectable="0">
          <mxGeometry x="20" y="17.5" width="330" height="460" as="geometry" />
        </mxCell>
        <mxCell id="pjTEBmYC1_ZTYM2vS1I1-1592" value="" style="rounded=0;whiteSpace=wrap;html=1;strokeColor=none;" parent="pjTEBmYC1_ZTYM2vS1I1-1591" vertex="1">
          <mxGeometry x="-20" y="-20" width="320" height="480" as="geometry" />
        </mxCell>
        <mxCell id="pjTEBmYC1_ZTYM2vS1I1-1593" value="" style="strokeWidth=2;html=1;shape=mxgraph.flowchart.annotation_1;align=left;pointerEvents=1;fillColor=none;opacity=30;" parent="pjTEBmYC1_ZTYM2vS1I1-1591" vertex="1">
          <mxGeometry width="30" height="140" as="geometry" />
        </mxCell>
        <mxCell id="pjTEBmYC1_ZTYM2vS1I1-1594" value="" style="group;fillColor=none;opacity=30;" parent="pjTEBmYC1_ZTYM2vS1I1-1591" vertex="1" connectable="0">
          <mxGeometry x="70" y="20" width="110" height="122.5" as="geometry" />
        </mxCell>
        <mxCell id="pjTEBmYC1_ZTYM2vS1I1-1595" value="" style="strokeWidth=2;html=1;shape=mxgraph.flowchart.annotation_1;align=left;pointerEvents=1;fillColor=none;opacity=30;" parent="pjTEBmYC1_ZTYM2vS1I1-1594" vertex="1">
          <mxGeometry width="10" height="100" as="geometry" />
        </mxCell>
        <mxCell id="pjTEBmYC1_ZTYM2vS1I1-1596" value="" style="strokeWidth=2;html=1;shape=mxgraph.flowchart.annotation_1;align=left;pointerEvents=1;rotation=-180;fillColor=none;opacity=30;" parent="pjTEBmYC1_ZTYM2vS1I1-1594" vertex="1">
          <mxGeometry x="30" width="10" height="100" as="geometry" />
        </mxCell>
        <mxCell id="pjTEBmYC1_ZTYM2vS1I1-1597" value="" style="rounded=1;whiteSpace=wrap;html=1;absoluteArcSize=1;arcSize=14;strokeWidth=2;fillColor=none;opacity=30;" parent="pjTEBmYC1_ZTYM2vS1I1-1594" vertex="1">
          <mxGeometry x="10" y="10" width="20" height="20" as="geometry" />
        </mxCell>
        <mxCell id="pjTEBmYC1_ZTYM2vS1I1-1598" value="" style="rounded=1;whiteSpace=wrap;html=1;absoluteArcSize=1;arcSize=14;strokeWidth=2;fillColor=none;opacity=30;" parent="pjTEBmYC1_ZTYM2vS1I1-1594" vertex="1">
          <mxGeometry x="10" y="40" width="20" height="20" as="geometry" />
        </mxCell>
        <mxCell id="pjTEBmYC1_ZTYM2vS1I1-1599" value="" style="rounded=1;whiteSpace=wrap;html=1;absoluteArcSize=1;arcSize=14;strokeWidth=2;fillColor=none;opacity=30;" parent="pjTEBmYC1_ZTYM2vS1I1-1594" vertex="1">
          <mxGeometry x="10" y="70" width="20" height="20" as="geometry" />
        </mxCell>
        <mxCell id="pjTEBmYC1_ZTYM2vS1I1-1600" value="" style="group;fillColor=none;opacity=30;" parent="pjTEBmYC1_ZTYM2vS1I1-1591" vertex="1" connectable="0">
          <mxGeometry x="120" y="20" width="160" height="122.5" as="geometry" />
        </mxCell>
        <mxCell id="pjTEBmYC1_ZTYM2vS1I1-1601" value="" style="strokeWidth=2;html=1;shape=mxgraph.flowchart.annotation_1;align=left;pointerEvents=1;fillColor=none;opacity=30;" parent="pjTEBmYC1_ZTYM2vS1I1-1600" vertex="1">
          <mxGeometry width="10" height="100" as="geometry" />
        </mxCell>
        <mxCell id="pjTEBmYC1_ZTYM2vS1I1-1602" value="" style="strokeWidth=2;html=1;shape=mxgraph.flowchart.annotation_1;align=left;pointerEvents=1;rotation=-180;fillColor=none;opacity=30;" parent="pjTEBmYC1_ZTYM2vS1I1-1600" vertex="1">
          <mxGeometry x="30" width="10" height="100" as="geometry" />
        </mxCell>
        <mxCell id="pjTEBmYC1_ZTYM2vS1I1-1603" value="" style="rounded=1;whiteSpace=wrap;html=1;absoluteArcSize=1;arcSize=14;strokeWidth=2;fillColor=none;opacity=30;" parent="pjTEBmYC1_ZTYM2vS1I1-1600" vertex="1">
          <mxGeometry x="10" y="10" width="20" height="20" as="geometry" />
        </mxCell>
        <mxCell id="pjTEBmYC1_ZTYM2vS1I1-1604" value="" style="rounded=1;whiteSpace=wrap;html=1;absoluteArcSize=1;arcSize=14;strokeWidth=2;fillColor=none;opacity=30;" parent="pjTEBmYC1_ZTYM2vS1I1-1600" vertex="1">
          <mxGeometry x="10" y="40" width="20" height="20" as="geometry" />
        </mxCell>
        <mxCell id="pjTEBmYC1_ZTYM2vS1I1-1605" value="" style="rounded=1;whiteSpace=wrap;html=1;absoluteArcSize=1;arcSize=14;strokeWidth=2;fillColor=none;opacity=30;" parent="pjTEBmYC1_ZTYM2vS1I1-1600" vertex="1">
          <mxGeometry x="10" y="70" width="20" height="20" as="geometry" />
        </mxCell>
        <mxCell id="pjTEBmYC1_ZTYM2vS1I1-1606" value="" style="group;fillColor=none;opacity=30;" parent="pjTEBmYC1_ZTYM2vS1I1-1600" vertex="1" connectable="0">
          <mxGeometry x="50" width="110" height="122.5" as="geometry" />
        </mxCell>
        <mxCell id="pjTEBmYC1_ZTYM2vS1I1-1607" value="" style="strokeWidth=2;html=1;shape=mxgraph.flowchart.annotation_1;align=left;pointerEvents=1;fillColor=none;opacity=30;" parent="pjTEBmYC1_ZTYM2vS1I1-1606" vertex="1">
          <mxGeometry width="10" height="100" as="geometry" />
        </mxCell>
        <mxCell id="pjTEBmYC1_ZTYM2vS1I1-1608" value="" style="strokeWidth=2;html=1;shape=mxgraph.flowchart.annotation_1;align=left;pointerEvents=1;rotation=-180;fillColor=none;opacity=30;" parent="pjTEBmYC1_ZTYM2vS1I1-1606" vertex="1">
          <mxGeometry x="30" width="10" height="100" as="geometry" />
        </mxCell>
        <mxCell id="pjTEBmYC1_ZTYM2vS1I1-1609" value="" style="rounded=1;whiteSpace=wrap;html=1;absoluteArcSize=1;arcSize=14;strokeWidth=2;fillColor=none;opacity=30;" parent="pjTEBmYC1_ZTYM2vS1I1-1606" vertex="1">
          <mxGeometry x="10" y="10" width="20" height="20" as="geometry" />
        </mxCell>
        <mxCell id="pjTEBmYC1_ZTYM2vS1I1-1610" value="" style="rounded=1;whiteSpace=wrap;html=1;absoluteArcSize=1;arcSize=14;strokeWidth=2;fillColor=none;opacity=30;" parent="pjTEBmYC1_ZTYM2vS1I1-1606" vertex="1">
          <mxGeometry x="10" y="40" width="20" height="20" as="geometry" />
        </mxCell>
        <mxCell id="pjTEBmYC1_ZTYM2vS1I1-1611" value="" style="rounded=1;whiteSpace=wrap;html=1;absoluteArcSize=1;arcSize=14;strokeWidth=2;fillColor=none;direction=south;opacity=30;" parent="pjTEBmYC1_ZTYM2vS1I1-1606" vertex="1">
          <mxGeometry x="10" y="70" width="20" height="20" as="geometry" />
        </mxCell>
        <mxCell id="pjTEBmYC1_ZTYM2vS1I1-1612" value="" style="group;fillColor=none;opacity=30;" parent="pjTEBmYC1_ZTYM2vS1I1-1591" vertex="1" connectable="0">
          <mxGeometry x="20" y="20" width="110" height="122.5" as="geometry" />
        </mxCell>
        <mxCell id="pjTEBmYC1_ZTYM2vS1I1-1613" value="" style="strokeWidth=2;html=1;shape=mxgraph.flowchart.annotation_1;align=left;pointerEvents=1;fillColor=none;opacity=30;" parent="pjTEBmYC1_ZTYM2vS1I1-1612" vertex="1">
          <mxGeometry width="10" height="100" as="geometry" />
        </mxCell>
        <mxCell id="pjTEBmYC1_ZTYM2vS1I1-1614" value="" style="strokeWidth=2;html=1;shape=mxgraph.flowchart.annotation_1;align=left;pointerEvents=1;rotation=-180;fillColor=none;opacity=30;" parent="pjTEBmYC1_ZTYM2vS1I1-1612" vertex="1">
          <mxGeometry x="30" width="10" height="100" as="geometry" />
        </mxCell>
        <mxCell id="pjTEBmYC1_ZTYM2vS1I1-1615" value="" style="rounded=1;whiteSpace=wrap;html=1;absoluteArcSize=1;arcSize=14;strokeWidth=2;fillColor=none;opacity=30;" parent="pjTEBmYC1_ZTYM2vS1I1-1612" vertex="1">
          <mxGeometry x="10" y="10" width="20" height="20" as="geometry" />
        </mxCell>
        <mxCell id="pjTEBmYC1_ZTYM2vS1I1-1616" value="" style="rounded=1;whiteSpace=wrap;html=1;absoluteArcSize=1;arcSize=14;strokeWidth=2;fillColor=none;opacity=30;" parent="pjTEBmYC1_ZTYM2vS1I1-1612" vertex="1">
          <mxGeometry x="10" y="40" width="20" height="20" as="geometry" />
        </mxCell>
        <mxCell id="pjTEBmYC1_ZTYM2vS1I1-1617" value="" style="rounded=1;whiteSpace=wrap;html=1;absoluteArcSize=1;arcSize=14;strokeWidth=2;fillColor=none;opacity=30;" parent="pjTEBmYC1_ZTYM2vS1I1-1612" vertex="1">
          <mxGeometry x="10" y="70" width="20" height="20" as="geometry" />
        </mxCell>
        <mxCell id="pjTEBmYC1_ZTYM2vS1I1-1618" value="" style="group;fillColor=none;opacity=30;" parent="pjTEBmYC1_ZTYM2vS1I1-1591" vertex="1" connectable="0">
          <mxGeometry x="220" y="20" width="110" height="122.5" as="geometry" />
        </mxCell>
        <mxCell id="pjTEBmYC1_ZTYM2vS1I1-1619" value="" style="strokeWidth=2;html=1;shape=mxgraph.flowchart.annotation_1;align=left;pointerEvents=1;fillColor=none;opacity=30;" parent="pjTEBmYC1_ZTYM2vS1I1-1618" vertex="1">
          <mxGeometry width="10" height="100" as="geometry" />
        </mxCell>
        <mxCell id="pjTEBmYC1_ZTYM2vS1I1-1620" value="" style="strokeWidth=2;html=1;shape=mxgraph.flowchart.annotation_1;align=left;pointerEvents=1;rotation=-180;fillColor=none;opacity=30;" parent="pjTEBmYC1_ZTYM2vS1I1-1618" vertex="1">
          <mxGeometry x="30" width="10" height="100" as="geometry" />
        </mxCell>
        <mxCell id="pjTEBmYC1_ZTYM2vS1I1-1621" value="" style="rounded=1;whiteSpace=wrap;html=1;absoluteArcSize=1;arcSize=14;strokeWidth=2;fillColor=none;opacity=30;" parent="pjTEBmYC1_ZTYM2vS1I1-1618" vertex="1">
          <mxGeometry x="10" y="10" width="20" height="20" as="geometry" />
        </mxCell>
        <mxCell id="pjTEBmYC1_ZTYM2vS1I1-1622" value="" style="rounded=1;whiteSpace=wrap;html=1;absoluteArcSize=1;arcSize=14;strokeWidth=2;fillColor=none;opacity=30;" parent="pjTEBmYC1_ZTYM2vS1I1-1618" vertex="1">
          <mxGeometry x="10" y="40" width="20" height="20" as="geometry" />
        </mxCell>
        <mxCell id="pjTEBmYC1_ZTYM2vS1I1-1623" value="" style="rounded=1;whiteSpace=wrap;html=1;absoluteArcSize=1;arcSize=14;strokeWidth=2;fillColor=none;opacity=30;" parent="pjTEBmYC1_ZTYM2vS1I1-1618" vertex="1">
          <mxGeometry x="10" y="70" width="20" height="20" as="geometry" />
        </mxCell>
        <mxCell id="pjTEBmYC1_ZTYM2vS1I1-1624" value="" style="strokeWidth=2;html=1;shape=mxgraph.flowchart.annotation_1;align=left;pointerEvents=1;fillColor=none;rotation=-180;opacity=30;" parent="pjTEBmYC1_ZTYM2vS1I1-1618" vertex="1">
          <mxGeometry x="30" y="-20" width="30" height="140" as="geometry" />
        </mxCell>
        <mxCell id="pjTEBmYC1_ZTYM2vS1I1-1625" value="" style="group;opacity=30;" parent="pjTEBmYC1_ZTYM2vS1I1-1590" vertex="1" connectable="0">
          <mxGeometry x="20" y="167.5" width="330" height="307.5" as="geometry" />
        </mxCell>
        <mxCell id="pjTEBmYC1_ZTYM2vS1I1-1626" value="" style="rounded=0;whiteSpace=wrap;html=1;strokeColor=none;opacity=30;" parent="pjTEBmYC1_ZTYM2vS1I1-1625" vertex="1">
          <mxGeometry width="280" height="140" as="geometry" />
        </mxCell>
        <mxCell id="pjTEBmYC1_ZTYM2vS1I1-1627" value="" style="strokeWidth=2;html=1;shape=mxgraph.flowchart.annotation_1;align=left;pointerEvents=1;fillColor=none;opacity=30;" parent="pjTEBmYC1_ZTYM2vS1I1-1625" vertex="1">
          <mxGeometry width="30" height="140" as="geometry" />
        </mxCell>
        <mxCell id="pjTEBmYC1_ZTYM2vS1I1-1628" value="" style="group;fillColor=none;opacity=30;" parent="pjTEBmYC1_ZTYM2vS1I1-1625" vertex="1" connectable="0">
          <mxGeometry x="70" y="20" width="110" height="122.5" as="geometry" />
        </mxCell>
        <mxCell id="pjTEBmYC1_ZTYM2vS1I1-1629" value="" style="strokeWidth=2;html=1;shape=mxgraph.flowchart.annotation_1;align=left;pointerEvents=1;fillColor=none;opacity=30;" parent="pjTEBmYC1_ZTYM2vS1I1-1628" vertex="1">
          <mxGeometry width="10" height="100" as="geometry" />
        </mxCell>
        <mxCell id="pjTEBmYC1_ZTYM2vS1I1-1630" value="" style="strokeWidth=2;html=1;shape=mxgraph.flowchart.annotation_1;align=left;pointerEvents=1;rotation=-180;fillColor=none;opacity=30;" parent="pjTEBmYC1_ZTYM2vS1I1-1628" vertex="1">
          <mxGeometry x="30" width="10" height="100" as="geometry" />
        </mxCell>
        <mxCell id="pjTEBmYC1_ZTYM2vS1I1-1631" value="" style="rounded=1;whiteSpace=wrap;html=1;absoluteArcSize=1;arcSize=14;strokeWidth=2;fillColor=none;opacity=30;" parent="pjTEBmYC1_ZTYM2vS1I1-1628" vertex="1">
          <mxGeometry x="10" y="10" width="20" height="20" as="geometry" />
        </mxCell>
        <mxCell id="pjTEBmYC1_ZTYM2vS1I1-1632" value="" style="rounded=1;whiteSpace=wrap;html=1;absoluteArcSize=1;arcSize=14;strokeWidth=2;fillColor=none;opacity=30;" parent="pjTEBmYC1_ZTYM2vS1I1-1628" vertex="1">
          <mxGeometry x="10" y="40" width="20" height="20" as="geometry" />
        </mxCell>
        <mxCell id="pjTEBmYC1_ZTYM2vS1I1-1633" value="" style="rounded=1;whiteSpace=wrap;html=1;absoluteArcSize=1;arcSize=14;strokeWidth=2;fillColor=none;opacity=30;" parent="pjTEBmYC1_ZTYM2vS1I1-1628" vertex="1">
          <mxGeometry x="10" y="70" width="20" height="20" as="geometry" />
        </mxCell>
        <mxCell id="pjTEBmYC1_ZTYM2vS1I1-1634" value="" style="group;fillColor=none;opacity=30;" parent="pjTEBmYC1_ZTYM2vS1I1-1625" vertex="1" connectable="0">
          <mxGeometry x="120" y="20" width="160" height="122.5" as="geometry" />
        </mxCell>
        <mxCell id="pjTEBmYC1_ZTYM2vS1I1-1635" value="" style="strokeWidth=2;html=1;shape=mxgraph.flowchart.annotation_1;align=left;pointerEvents=1;fillColor=none;opacity=30;" parent="pjTEBmYC1_ZTYM2vS1I1-1634" vertex="1">
          <mxGeometry width="10" height="100" as="geometry" />
        </mxCell>
        <mxCell id="pjTEBmYC1_ZTYM2vS1I1-1636" value="" style="strokeWidth=2;html=1;shape=mxgraph.flowchart.annotation_1;align=left;pointerEvents=1;rotation=-180;fillColor=none;opacity=30;" parent="pjTEBmYC1_ZTYM2vS1I1-1634" vertex="1">
          <mxGeometry x="30" width="10" height="100" as="geometry" />
        </mxCell>
        <mxCell id="pjTEBmYC1_ZTYM2vS1I1-1637" value="" style="rounded=1;whiteSpace=wrap;html=1;absoluteArcSize=1;arcSize=14;strokeWidth=2;fillColor=none;opacity=30;" parent="pjTEBmYC1_ZTYM2vS1I1-1634" vertex="1">
          <mxGeometry x="10" y="10" width="20" height="20" as="geometry" />
        </mxCell>
        <mxCell id="pjTEBmYC1_ZTYM2vS1I1-1638" value="" style="rounded=1;whiteSpace=wrap;html=1;absoluteArcSize=1;arcSize=14;strokeWidth=2;fillColor=none;opacity=30;" parent="pjTEBmYC1_ZTYM2vS1I1-1634" vertex="1">
          <mxGeometry x="10" y="40" width="20" height="20" as="geometry" />
        </mxCell>
        <mxCell id="pjTEBmYC1_ZTYM2vS1I1-1639" value="" style="rounded=1;whiteSpace=wrap;html=1;absoluteArcSize=1;arcSize=14;strokeWidth=2;fillColor=none;opacity=30;" parent="pjTEBmYC1_ZTYM2vS1I1-1634" vertex="1">
          <mxGeometry x="10" y="70" width="20" height="20" as="geometry" />
        </mxCell>
        <mxCell id="pjTEBmYC1_ZTYM2vS1I1-1640" value="" style="group;fillColor=none;opacity=30;" parent="pjTEBmYC1_ZTYM2vS1I1-1634" vertex="1" connectable="0">
          <mxGeometry x="50" width="110" height="122.5" as="geometry" />
        </mxCell>
        <mxCell id="pjTEBmYC1_ZTYM2vS1I1-1641" value="" style="strokeWidth=2;html=1;shape=mxgraph.flowchart.annotation_1;align=left;pointerEvents=1;fillColor=none;opacity=30;" parent="pjTEBmYC1_ZTYM2vS1I1-1640" vertex="1">
          <mxGeometry width="10" height="100" as="geometry" />
        </mxCell>
        <mxCell id="pjTEBmYC1_ZTYM2vS1I1-1642" value="" style="strokeWidth=2;html=1;shape=mxgraph.flowchart.annotation_1;align=left;pointerEvents=1;rotation=-180;fillColor=none;opacity=30;" parent="pjTEBmYC1_ZTYM2vS1I1-1640" vertex="1">
          <mxGeometry x="30" width="10" height="100" as="geometry" />
        </mxCell>
        <mxCell id="pjTEBmYC1_ZTYM2vS1I1-1643" value="" style="rounded=1;whiteSpace=wrap;html=1;absoluteArcSize=1;arcSize=14;strokeWidth=2;fillColor=none;opacity=30;" parent="pjTEBmYC1_ZTYM2vS1I1-1640" vertex="1">
          <mxGeometry x="10" y="10" width="20" height="20" as="geometry" />
        </mxCell>
        <mxCell id="pjTEBmYC1_ZTYM2vS1I1-1644" value="" style="rounded=1;whiteSpace=wrap;html=1;absoluteArcSize=1;arcSize=14;strokeWidth=2;fillColor=none;opacity=30;" parent="pjTEBmYC1_ZTYM2vS1I1-1640" vertex="1">
          <mxGeometry x="10" y="40" width="20" height="20" as="geometry" />
        </mxCell>
        <mxCell id="pjTEBmYC1_ZTYM2vS1I1-1645" value="" style="rounded=1;whiteSpace=wrap;html=1;absoluteArcSize=1;arcSize=14;strokeWidth=2;fillColor=none;direction=south;opacity=30;" parent="pjTEBmYC1_ZTYM2vS1I1-1640" vertex="1">
          <mxGeometry x="10" y="70" width="20" height="20" as="geometry" />
        </mxCell>
        <mxCell id="pjTEBmYC1_ZTYM2vS1I1-1646" value="" style="group;fillColor=none;opacity=30;" parent="pjTEBmYC1_ZTYM2vS1I1-1625" vertex="1" connectable="0">
          <mxGeometry x="20" y="20" width="110" height="122.5" as="geometry" />
        </mxCell>
        <mxCell id="pjTEBmYC1_ZTYM2vS1I1-1647" value="" style="strokeWidth=2;html=1;shape=mxgraph.flowchart.annotation_1;align=left;pointerEvents=1;fillColor=none;opacity=30;" parent="pjTEBmYC1_ZTYM2vS1I1-1646" vertex="1">
          <mxGeometry width="10" height="100" as="geometry" />
        </mxCell>
        <mxCell id="pjTEBmYC1_ZTYM2vS1I1-1648" value="" style="strokeWidth=2;html=1;shape=mxgraph.flowchart.annotation_1;align=left;pointerEvents=1;rotation=-180;fillColor=none;opacity=30;" parent="pjTEBmYC1_ZTYM2vS1I1-1646" vertex="1">
          <mxGeometry x="30" width="10" height="100" as="geometry" />
        </mxCell>
        <mxCell id="pjTEBmYC1_ZTYM2vS1I1-1649" value="" style="rounded=1;whiteSpace=wrap;html=1;absoluteArcSize=1;arcSize=14;strokeWidth=2;fillColor=none;opacity=30;" parent="pjTEBmYC1_ZTYM2vS1I1-1646" vertex="1">
          <mxGeometry x="10" y="10" width="20" height="20" as="geometry" />
        </mxCell>
        <mxCell id="pjTEBmYC1_ZTYM2vS1I1-1650" value="" style="rounded=1;whiteSpace=wrap;html=1;absoluteArcSize=1;arcSize=14;strokeWidth=2;fillColor=none;opacity=30;" parent="pjTEBmYC1_ZTYM2vS1I1-1646" vertex="1">
          <mxGeometry x="10" y="40" width="20" height="20" as="geometry" />
        </mxCell>
        <mxCell id="pjTEBmYC1_ZTYM2vS1I1-1651" value="" style="rounded=1;whiteSpace=wrap;html=1;absoluteArcSize=1;arcSize=14;strokeWidth=2;fillColor=none;opacity=30;" parent="pjTEBmYC1_ZTYM2vS1I1-1646" vertex="1">
          <mxGeometry x="10" y="70" width="20" height="20" as="geometry" />
        </mxCell>
        <mxCell id="pjTEBmYC1_ZTYM2vS1I1-1652" value="" style="group;fillColor=none;opacity=30;" parent="pjTEBmYC1_ZTYM2vS1I1-1625" vertex="1" connectable="0">
          <mxGeometry x="220" y="20" width="110" height="287.5" as="geometry" />
        </mxCell>
        <mxCell id="pjTEBmYC1_ZTYM2vS1I1-1653" value="" style="strokeWidth=2;html=1;shape=mxgraph.flowchart.annotation_1;align=left;pointerEvents=1;fillColor=none;opacity=30;" parent="pjTEBmYC1_ZTYM2vS1I1-1652" vertex="1">
          <mxGeometry width="10" height="100" as="geometry" />
        </mxCell>
        <mxCell id="pjTEBmYC1_ZTYM2vS1I1-1654" value="" style="strokeWidth=2;html=1;shape=mxgraph.flowchart.annotation_1;align=left;pointerEvents=1;rotation=-180;fillColor=none;opacity=30;" parent="pjTEBmYC1_ZTYM2vS1I1-1652" vertex="1">
          <mxGeometry x="30" width="10" height="100" as="geometry" />
        </mxCell>
        <mxCell id="pjTEBmYC1_ZTYM2vS1I1-1655" value="" style="rounded=1;whiteSpace=wrap;html=1;absoluteArcSize=1;arcSize=14;strokeWidth=2;fillColor=none;opacity=30;" parent="pjTEBmYC1_ZTYM2vS1I1-1652" vertex="1">
          <mxGeometry x="10" y="10" width="20" height="20" as="geometry" />
        </mxCell>
        <mxCell id="pjTEBmYC1_ZTYM2vS1I1-1656" value="" style="rounded=1;whiteSpace=wrap;html=1;absoluteArcSize=1;arcSize=14;strokeWidth=2;fillColor=none;opacity=30;" parent="pjTEBmYC1_ZTYM2vS1I1-1652" vertex="1">
          <mxGeometry x="10" y="40" width="20" height="20" as="geometry" />
        </mxCell>
        <mxCell id="pjTEBmYC1_ZTYM2vS1I1-1657" value="" style="rounded=1;whiteSpace=wrap;html=1;absoluteArcSize=1;arcSize=14;strokeWidth=2;fillColor=none;opacity=30;" parent="pjTEBmYC1_ZTYM2vS1I1-1652" vertex="1">
          <mxGeometry x="10" y="70" width="20" height="20" as="geometry" />
        </mxCell>
        <mxCell id="pjTEBmYC1_ZTYM2vS1I1-1658" value="" style="strokeWidth=2;html=1;shape=mxgraph.flowchart.annotation_1;align=left;pointerEvents=1;fillColor=none;rotation=-180;opacity=30;" parent="pjTEBmYC1_ZTYM2vS1I1-1652" vertex="1">
          <mxGeometry x="30" y="-20" width="30" height="140" as="geometry" />
        </mxCell>
        <mxCell id="pjTEBmYC1_ZTYM2vS1I1-1659" value="" style="strokeWidth=2;html=1;shape=mxgraph.flowchart.annotation_1;align=left;pointerEvents=1;rotation=-180;opacity=30;" parent="pjTEBmYC1_ZTYM2vS1I1-1652" vertex="1">
          <mxGeometry x="30" y="-190" width="50" height="477.5" as="geometry" />
        </mxCell>
        <mxCell id="pjTEBmYC1_ZTYM2vS1I1-1660" value="" style="group;opacity=30;" parent="pjTEBmYC1_ZTYM2vS1I1-1590" vertex="1" connectable="0">
          <mxGeometry x="20" y="317.5" width="330" height="142.5" as="geometry" />
        </mxCell>
        <mxCell id="pjTEBmYC1_ZTYM2vS1I1-1661" value="" style="rounded=0;whiteSpace=wrap;html=1;strokeColor=none;opacity=30;" parent="pjTEBmYC1_ZTYM2vS1I1-1660" vertex="1">
          <mxGeometry width="280" height="140" as="geometry" />
        </mxCell>
        <mxCell id="pjTEBmYC1_ZTYM2vS1I1-1662" value="" style="strokeWidth=2;html=1;shape=mxgraph.flowchart.annotation_1;align=left;pointerEvents=1;fillColor=none;opacity=30;" parent="pjTEBmYC1_ZTYM2vS1I1-1660" vertex="1">
          <mxGeometry width="30" height="140" as="geometry" />
        </mxCell>
        <mxCell id="pjTEBmYC1_ZTYM2vS1I1-1663" value="" style="group;fillColor=none;opacity=30;" parent="pjTEBmYC1_ZTYM2vS1I1-1660" vertex="1" connectable="0">
          <mxGeometry x="70" y="20" width="110" height="122.5" as="geometry" />
        </mxCell>
        <mxCell id="pjTEBmYC1_ZTYM2vS1I1-1664" value="" style="strokeWidth=2;html=1;shape=mxgraph.flowchart.annotation_1;align=left;pointerEvents=1;fillColor=none;opacity=30;" parent="pjTEBmYC1_ZTYM2vS1I1-1663" vertex="1">
          <mxGeometry width="10" height="100" as="geometry" />
        </mxCell>
        <mxCell id="pjTEBmYC1_ZTYM2vS1I1-1665" value="" style="strokeWidth=2;html=1;shape=mxgraph.flowchart.annotation_1;align=left;pointerEvents=1;rotation=-180;fillColor=none;opacity=30;" parent="pjTEBmYC1_ZTYM2vS1I1-1663" vertex="1">
          <mxGeometry x="30" width="10" height="100" as="geometry" />
        </mxCell>
        <mxCell id="pjTEBmYC1_ZTYM2vS1I1-1666" value="" style="rounded=1;whiteSpace=wrap;html=1;absoluteArcSize=1;arcSize=14;strokeWidth=2;fillColor=none;opacity=30;" parent="pjTEBmYC1_ZTYM2vS1I1-1663" vertex="1">
          <mxGeometry x="10" y="10" width="20" height="20" as="geometry" />
        </mxCell>
        <mxCell id="pjTEBmYC1_ZTYM2vS1I1-1667" value="" style="rounded=1;whiteSpace=wrap;html=1;absoluteArcSize=1;arcSize=14;strokeWidth=2;fillColor=none;opacity=30;" parent="pjTEBmYC1_ZTYM2vS1I1-1663" vertex="1">
          <mxGeometry x="10" y="40" width="20" height="20" as="geometry" />
        </mxCell>
        <mxCell id="pjTEBmYC1_ZTYM2vS1I1-1668" value="" style="rounded=1;whiteSpace=wrap;html=1;absoluteArcSize=1;arcSize=14;strokeWidth=2;fillColor=none;opacity=30;" parent="pjTEBmYC1_ZTYM2vS1I1-1663" vertex="1">
          <mxGeometry x="10" y="70" width="20" height="20" as="geometry" />
        </mxCell>
        <mxCell id="pjTEBmYC1_ZTYM2vS1I1-1669" value="" style="group;fillColor=none;opacity=30;" parent="pjTEBmYC1_ZTYM2vS1I1-1660" vertex="1" connectable="0">
          <mxGeometry x="120" y="20" width="160" height="122.5" as="geometry" />
        </mxCell>
        <mxCell id="pjTEBmYC1_ZTYM2vS1I1-1670" value="" style="strokeWidth=2;html=1;shape=mxgraph.flowchart.annotation_1;align=left;pointerEvents=1;fillColor=none;opacity=30;" parent="pjTEBmYC1_ZTYM2vS1I1-1669" vertex="1">
          <mxGeometry width="10" height="100" as="geometry" />
        </mxCell>
        <mxCell id="pjTEBmYC1_ZTYM2vS1I1-1671" value="" style="strokeWidth=2;html=1;shape=mxgraph.flowchart.annotation_1;align=left;pointerEvents=1;rotation=-180;fillColor=none;opacity=30;" parent="pjTEBmYC1_ZTYM2vS1I1-1669" vertex="1">
          <mxGeometry x="30" width="10" height="100" as="geometry" />
        </mxCell>
        <mxCell id="pjTEBmYC1_ZTYM2vS1I1-1672" value="" style="rounded=1;whiteSpace=wrap;html=1;absoluteArcSize=1;arcSize=14;strokeWidth=2;fillColor=none;opacity=30;" parent="pjTEBmYC1_ZTYM2vS1I1-1669" vertex="1">
          <mxGeometry x="10" y="10" width="20" height="20" as="geometry" />
        </mxCell>
        <mxCell id="pjTEBmYC1_ZTYM2vS1I1-1673" value="" style="rounded=1;whiteSpace=wrap;html=1;absoluteArcSize=1;arcSize=14;strokeWidth=2;fillColor=none;opacity=30;" parent="pjTEBmYC1_ZTYM2vS1I1-1669" vertex="1">
          <mxGeometry x="10" y="40" width="20" height="20" as="geometry" />
        </mxCell>
        <mxCell id="pjTEBmYC1_ZTYM2vS1I1-1674" value="" style="rounded=1;whiteSpace=wrap;html=1;absoluteArcSize=1;arcSize=14;strokeWidth=2;fillColor=none;opacity=30;" parent="pjTEBmYC1_ZTYM2vS1I1-1669" vertex="1">
          <mxGeometry x="10" y="70" width="20" height="20" as="geometry" />
        </mxCell>
        <mxCell id="pjTEBmYC1_ZTYM2vS1I1-1675" value="" style="group;fillColor=none;opacity=30;" parent="pjTEBmYC1_ZTYM2vS1I1-1669" vertex="1" connectable="0">
          <mxGeometry x="50" width="110" height="122.5" as="geometry" />
        </mxCell>
        <mxCell id="pjTEBmYC1_ZTYM2vS1I1-1676" value="" style="strokeWidth=2;html=1;shape=mxgraph.flowchart.annotation_1;align=left;pointerEvents=1;fillColor=none;opacity=30;" parent="pjTEBmYC1_ZTYM2vS1I1-1675" vertex="1">
          <mxGeometry width="10" height="100" as="geometry" />
        </mxCell>
        <mxCell id="pjTEBmYC1_ZTYM2vS1I1-1677" value="" style="strokeWidth=2;html=1;shape=mxgraph.flowchart.annotation_1;align=left;pointerEvents=1;rotation=-180;fillColor=none;opacity=30;" parent="pjTEBmYC1_ZTYM2vS1I1-1675" vertex="1">
          <mxGeometry x="30" width="10" height="100" as="geometry" />
        </mxCell>
        <mxCell id="pjTEBmYC1_ZTYM2vS1I1-1678" value="" style="rounded=1;whiteSpace=wrap;html=1;absoluteArcSize=1;arcSize=14;strokeWidth=2;fillColor=none;opacity=30;" parent="pjTEBmYC1_ZTYM2vS1I1-1675" vertex="1">
          <mxGeometry x="10" y="10" width="20" height="20" as="geometry" />
        </mxCell>
        <mxCell id="pjTEBmYC1_ZTYM2vS1I1-1679" value="" style="rounded=1;whiteSpace=wrap;html=1;absoluteArcSize=1;arcSize=14;strokeWidth=2;fillColor=none;opacity=30;" parent="pjTEBmYC1_ZTYM2vS1I1-1675" vertex="1">
          <mxGeometry x="10" y="40" width="20" height="20" as="geometry" />
        </mxCell>
        <mxCell id="pjTEBmYC1_ZTYM2vS1I1-1680" value="" style="rounded=1;whiteSpace=wrap;html=1;absoluteArcSize=1;arcSize=14;strokeWidth=2;fillColor=none;direction=south;opacity=30;" parent="pjTEBmYC1_ZTYM2vS1I1-1675" vertex="1">
          <mxGeometry x="10" y="70" width="20" height="20" as="geometry" />
        </mxCell>
        <mxCell id="pjTEBmYC1_ZTYM2vS1I1-1681" value="" style="group;fillColor=none;opacity=30;" parent="pjTEBmYC1_ZTYM2vS1I1-1660" vertex="1" connectable="0">
          <mxGeometry x="20" y="20" width="110" height="122.5" as="geometry" />
        </mxCell>
        <mxCell id="pjTEBmYC1_ZTYM2vS1I1-1682" value="" style="strokeWidth=2;html=1;shape=mxgraph.flowchart.annotation_1;align=left;pointerEvents=1;fillColor=none;opacity=30;" parent="pjTEBmYC1_ZTYM2vS1I1-1681" vertex="1">
          <mxGeometry width="10" height="100" as="geometry" />
        </mxCell>
        <mxCell id="pjTEBmYC1_ZTYM2vS1I1-1683" value="" style="strokeWidth=2;html=1;shape=mxgraph.flowchart.annotation_1;align=left;pointerEvents=1;rotation=-180;fillColor=none;opacity=30;" parent="pjTEBmYC1_ZTYM2vS1I1-1681" vertex="1">
          <mxGeometry x="30" width="10" height="100" as="geometry" />
        </mxCell>
        <mxCell id="pjTEBmYC1_ZTYM2vS1I1-1684" value="" style="rounded=1;whiteSpace=wrap;html=1;absoluteArcSize=1;arcSize=14;strokeWidth=2;fillColor=none;opacity=30;" parent="pjTEBmYC1_ZTYM2vS1I1-1681" vertex="1">
          <mxGeometry x="10" y="10" width="20" height="20" as="geometry" />
        </mxCell>
        <mxCell id="pjTEBmYC1_ZTYM2vS1I1-1685" value="" style="rounded=1;whiteSpace=wrap;html=1;absoluteArcSize=1;arcSize=14;strokeWidth=2;fillColor=none;opacity=30;" parent="pjTEBmYC1_ZTYM2vS1I1-1681" vertex="1">
          <mxGeometry x="10" y="40" width="20" height="20" as="geometry" />
        </mxCell>
        <mxCell id="pjTEBmYC1_ZTYM2vS1I1-1686" value="" style="rounded=1;whiteSpace=wrap;html=1;absoluteArcSize=1;arcSize=14;strokeWidth=2;fillColor=none;opacity=30;" parent="pjTEBmYC1_ZTYM2vS1I1-1681" vertex="1">
          <mxGeometry x="10" y="70" width="20" height="20" as="geometry" />
        </mxCell>
        <mxCell id="pjTEBmYC1_ZTYM2vS1I1-1687" value="" style="group;fillColor=none;opacity=30;" parent="pjTEBmYC1_ZTYM2vS1I1-1660" vertex="1" connectable="0">
          <mxGeometry x="220" y="20" width="110" height="122.5" as="geometry" />
        </mxCell>
        <mxCell id="pjTEBmYC1_ZTYM2vS1I1-1688" value="" style="strokeWidth=2;html=1;shape=mxgraph.flowchart.annotation_1;align=left;pointerEvents=1;fillColor=none;opacity=30;" parent="pjTEBmYC1_ZTYM2vS1I1-1687" vertex="1">
          <mxGeometry width="10" height="100" as="geometry" />
        </mxCell>
        <mxCell id="pjTEBmYC1_ZTYM2vS1I1-1689" value="" style="strokeWidth=2;html=1;shape=mxgraph.flowchart.annotation_1;align=left;pointerEvents=1;rotation=-180;fillColor=none;opacity=30;" parent="pjTEBmYC1_ZTYM2vS1I1-1687" vertex="1">
          <mxGeometry x="30" width="10" height="100" as="geometry" />
        </mxCell>
        <mxCell id="pjTEBmYC1_ZTYM2vS1I1-1690" value="" style="rounded=1;whiteSpace=wrap;html=1;absoluteArcSize=1;arcSize=14;strokeWidth=2;fillColor=none;opacity=30;" parent="pjTEBmYC1_ZTYM2vS1I1-1687" vertex="1">
          <mxGeometry x="10" y="10" width="20" height="20" as="geometry" />
        </mxCell>
        <mxCell id="pjTEBmYC1_ZTYM2vS1I1-1691" value="" style="rounded=1;whiteSpace=wrap;html=1;absoluteArcSize=1;arcSize=14;strokeWidth=2;fillColor=none;opacity=30;" parent="pjTEBmYC1_ZTYM2vS1I1-1687" vertex="1">
          <mxGeometry x="10" y="40" width="20" height="20" as="geometry" />
        </mxCell>
        <mxCell id="pjTEBmYC1_ZTYM2vS1I1-1692" value="" style="rounded=1;whiteSpace=wrap;html=1;absoluteArcSize=1;arcSize=14;strokeWidth=2;fillColor=none;opacity=30;" parent="pjTEBmYC1_ZTYM2vS1I1-1687" vertex="1">
          <mxGeometry x="10" y="70" width="20" height="20" as="geometry" />
        </mxCell>
        <mxCell id="pjTEBmYC1_ZTYM2vS1I1-1693" value="" style="strokeWidth=2;html=1;shape=mxgraph.flowchart.annotation_1;align=left;pointerEvents=1;fillColor=none;rotation=-180;opacity=30;" parent="pjTEBmYC1_ZTYM2vS1I1-1687" vertex="1">
          <mxGeometry x="30" y="-20" width="30" height="140" as="geometry" />
        </mxCell>
        <mxCell id="pjTEBmYC1_ZTYM2vS1I1-1694" value="" style="strokeWidth=2;html=1;shape=mxgraph.flowchart.annotation_1;align=left;pointerEvents=1;opacity=30;" parent="pjTEBmYC1_ZTYM2vS1I1-1590" vertex="1">
          <mxGeometry width="50" height="477.5" as="geometry" />
        </mxCell>
        <mxCell id="pjTEBmYC1_ZTYM2vS1I1-1695" value="" style="group" parent="pjTEBmYC1_ZTYM2vS1I1-1905" vertex="1" connectable="0">
          <mxGeometry x="10" y="20" width="350" height="617.5" as="geometry" />
        </mxCell>
        <mxCell id="pjTEBmYC1_ZTYM2vS1I1-1696" value="" style="group;opacity=30;" parent="pjTEBmYC1_ZTYM2vS1I1-1695" vertex="1" connectable="0">
          <mxGeometry x="20" y="17.5" width="330" height="460" as="geometry" />
        </mxCell>
        <mxCell id="pjTEBmYC1_ZTYM2vS1I1-1697" value="" style="rounded=0;whiteSpace=wrap;html=1;strokeColor=none;" parent="pjTEBmYC1_ZTYM2vS1I1-1696" vertex="1">
          <mxGeometry x="-20" y="-20" width="320" height="480" as="geometry" />
        </mxCell>
        <mxCell id="pjTEBmYC1_ZTYM2vS1I1-1698" value="" style="strokeWidth=2;html=1;shape=mxgraph.flowchart.annotation_1;align=left;pointerEvents=1;fillColor=none;opacity=30;" parent="pjTEBmYC1_ZTYM2vS1I1-1696" vertex="1">
          <mxGeometry width="30" height="140" as="geometry" />
        </mxCell>
        <mxCell id="pjTEBmYC1_ZTYM2vS1I1-1699" value="" style="group;fillColor=none;opacity=30;" parent="pjTEBmYC1_ZTYM2vS1I1-1696" vertex="1" connectable="0">
          <mxGeometry x="70" y="20" width="110" height="122.5" as="geometry" />
        </mxCell>
        <mxCell id="pjTEBmYC1_ZTYM2vS1I1-1700" value="" style="strokeWidth=2;html=1;shape=mxgraph.flowchart.annotation_1;align=left;pointerEvents=1;fillColor=none;opacity=30;" parent="pjTEBmYC1_ZTYM2vS1I1-1699" vertex="1">
          <mxGeometry width="10" height="100" as="geometry" />
        </mxCell>
        <mxCell id="pjTEBmYC1_ZTYM2vS1I1-1701" value="" style="strokeWidth=2;html=1;shape=mxgraph.flowchart.annotation_1;align=left;pointerEvents=1;rotation=-180;fillColor=none;opacity=30;" parent="pjTEBmYC1_ZTYM2vS1I1-1699" vertex="1">
          <mxGeometry x="30" width="10" height="100" as="geometry" />
        </mxCell>
        <mxCell id="pjTEBmYC1_ZTYM2vS1I1-1702" value="" style="rounded=1;whiteSpace=wrap;html=1;absoluteArcSize=1;arcSize=14;strokeWidth=2;fillColor=none;opacity=30;" parent="pjTEBmYC1_ZTYM2vS1I1-1699" vertex="1">
          <mxGeometry x="10" y="10" width="20" height="20" as="geometry" />
        </mxCell>
        <mxCell id="pjTEBmYC1_ZTYM2vS1I1-1703" value="" style="rounded=1;whiteSpace=wrap;html=1;absoluteArcSize=1;arcSize=14;strokeWidth=2;fillColor=none;opacity=30;" parent="pjTEBmYC1_ZTYM2vS1I1-1699" vertex="1">
          <mxGeometry x="10" y="40" width="20" height="20" as="geometry" />
        </mxCell>
        <mxCell id="pjTEBmYC1_ZTYM2vS1I1-1704" value="" style="rounded=1;whiteSpace=wrap;html=1;absoluteArcSize=1;arcSize=14;strokeWidth=2;fillColor=none;opacity=30;" parent="pjTEBmYC1_ZTYM2vS1I1-1699" vertex="1">
          <mxGeometry x="10" y="70" width="20" height="20" as="geometry" />
        </mxCell>
        <mxCell id="pjTEBmYC1_ZTYM2vS1I1-1705" value="" style="group;fillColor=none;opacity=30;" parent="pjTEBmYC1_ZTYM2vS1I1-1696" vertex="1" connectable="0">
          <mxGeometry x="120" y="20" width="160" height="122.5" as="geometry" />
        </mxCell>
        <mxCell id="pjTEBmYC1_ZTYM2vS1I1-1706" value="" style="strokeWidth=2;html=1;shape=mxgraph.flowchart.annotation_1;align=left;pointerEvents=1;fillColor=none;opacity=30;" parent="pjTEBmYC1_ZTYM2vS1I1-1705" vertex="1">
          <mxGeometry width="10" height="100" as="geometry" />
        </mxCell>
        <mxCell id="pjTEBmYC1_ZTYM2vS1I1-1707" value="" style="strokeWidth=2;html=1;shape=mxgraph.flowchart.annotation_1;align=left;pointerEvents=1;rotation=-180;fillColor=none;opacity=30;" parent="pjTEBmYC1_ZTYM2vS1I1-1705" vertex="1">
          <mxGeometry x="30" width="10" height="100" as="geometry" />
        </mxCell>
        <mxCell id="pjTEBmYC1_ZTYM2vS1I1-1708" value="" style="rounded=1;whiteSpace=wrap;html=1;absoluteArcSize=1;arcSize=14;strokeWidth=2;fillColor=none;opacity=30;" parent="pjTEBmYC1_ZTYM2vS1I1-1705" vertex="1">
          <mxGeometry x="10" y="10" width="20" height="20" as="geometry" />
        </mxCell>
        <mxCell id="pjTEBmYC1_ZTYM2vS1I1-1709" value="" style="rounded=1;whiteSpace=wrap;html=1;absoluteArcSize=1;arcSize=14;strokeWidth=2;fillColor=none;opacity=30;" parent="pjTEBmYC1_ZTYM2vS1I1-1705" vertex="1">
          <mxGeometry x="10" y="40" width="20" height="20" as="geometry" />
        </mxCell>
        <mxCell id="pjTEBmYC1_ZTYM2vS1I1-1710" value="" style="rounded=1;whiteSpace=wrap;html=1;absoluteArcSize=1;arcSize=14;strokeWidth=2;fillColor=none;opacity=30;" parent="pjTEBmYC1_ZTYM2vS1I1-1705" vertex="1">
          <mxGeometry x="10" y="70" width="20" height="20" as="geometry" />
        </mxCell>
        <mxCell id="pjTEBmYC1_ZTYM2vS1I1-1711" value="" style="group;fillColor=none;opacity=30;" parent="pjTEBmYC1_ZTYM2vS1I1-1705" vertex="1" connectable="0">
          <mxGeometry x="50" width="110" height="122.5" as="geometry" />
        </mxCell>
        <mxCell id="pjTEBmYC1_ZTYM2vS1I1-1712" value="" style="strokeWidth=2;html=1;shape=mxgraph.flowchart.annotation_1;align=left;pointerEvents=1;fillColor=none;opacity=30;" parent="pjTEBmYC1_ZTYM2vS1I1-1711" vertex="1">
          <mxGeometry width="10" height="100" as="geometry" />
        </mxCell>
        <mxCell id="pjTEBmYC1_ZTYM2vS1I1-1713" value="" style="strokeWidth=2;html=1;shape=mxgraph.flowchart.annotation_1;align=left;pointerEvents=1;rotation=-180;fillColor=none;opacity=30;" parent="pjTEBmYC1_ZTYM2vS1I1-1711" vertex="1">
          <mxGeometry x="30" width="10" height="100" as="geometry" />
        </mxCell>
        <mxCell id="pjTEBmYC1_ZTYM2vS1I1-1714" value="" style="rounded=1;whiteSpace=wrap;html=1;absoluteArcSize=1;arcSize=14;strokeWidth=2;fillColor=none;opacity=30;" parent="pjTEBmYC1_ZTYM2vS1I1-1711" vertex="1">
          <mxGeometry x="10" y="10" width="20" height="20" as="geometry" />
        </mxCell>
        <mxCell id="pjTEBmYC1_ZTYM2vS1I1-1715" value="" style="rounded=1;whiteSpace=wrap;html=1;absoluteArcSize=1;arcSize=14;strokeWidth=2;fillColor=none;opacity=30;" parent="pjTEBmYC1_ZTYM2vS1I1-1711" vertex="1">
          <mxGeometry x="10" y="40" width="20" height="20" as="geometry" />
        </mxCell>
        <mxCell id="pjTEBmYC1_ZTYM2vS1I1-1716" value="" style="rounded=1;whiteSpace=wrap;html=1;absoluteArcSize=1;arcSize=14;strokeWidth=2;fillColor=none;direction=south;opacity=30;" parent="pjTEBmYC1_ZTYM2vS1I1-1711" vertex="1">
          <mxGeometry x="10" y="70" width="20" height="20" as="geometry" />
        </mxCell>
        <mxCell id="pjTEBmYC1_ZTYM2vS1I1-1717" value="" style="group;fillColor=none;opacity=30;" parent="pjTEBmYC1_ZTYM2vS1I1-1696" vertex="1" connectable="0">
          <mxGeometry x="20" y="20" width="110" height="122.5" as="geometry" />
        </mxCell>
        <mxCell id="pjTEBmYC1_ZTYM2vS1I1-1718" value="" style="strokeWidth=2;html=1;shape=mxgraph.flowchart.annotation_1;align=left;pointerEvents=1;fillColor=none;opacity=30;" parent="pjTEBmYC1_ZTYM2vS1I1-1717" vertex="1">
          <mxGeometry width="10" height="100" as="geometry" />
        </mxCell>
        <mxCell id="pjTEBmYC1_ZTYM2vS1I1-1719" value="" style="strokeWidth=2;html=1;shape=mxgraph.flowchart.annotation_1;align=left;pointerEvents=1;rotation=-180;fillColor=none;opacity=30;" parent="pjTEBmYC1_ZTYM2vS1I1-1717" vertex="1">
          <mxGeometry x="30" width="10" height="100" as="geometry" />
        </mxCell>
        <mxCell id="pjTEBmYC1_ZTYM2vS1I1-1720" value="" style="rounded=1;whiteSpace=wrap;html=1;absoluteArcSize=1;arcSize=14;strokeWidth=2;fillColor=none;opacity=30;" parent="pjTEBmYC1_ZTYM2vS1I1-1717" vertex="1">
          <mxGeometry x="10" y="10" width="20" height="20" as="geometry" />
        </mxCell>
        <mxCell id="pjTEBmYC1_ZTYM2vS1I1-1721" value="" style="rounded=1;whiteSpace=wrap;html=1;absoluteArcSize=1;arcSize=14;strokeWidth=2;fillColor=none;opacity=30;" parent="pjTEBmYC1_ZTYM2vS1I1-1717" vertex="1">
          <mxGeometry x="10" y="40" width="20" height="20" as="geometry" />
        </mxCell>
        <mxCell id="pjTEBmYC1_ZTYM2vS1I1-1722" value="" style="rounded=1;whiteSpace=wrap;html=1;absoluteArcSize=1;arcSize=14;strokeWidth=2;fillColor=none;opacity=30;" parent="pjTEBmYC1_ZTYM2vS1I1-1717" vertex="1">
          <mxGeometry x="10" y="70" width="20" height="20" as="geometry" />
        </mxCell>
        <mxCell id="pjTEBmYC1_ZTYM2vS1I1-1723" value="" style="group;fillColor=none;opacity=30;" parent="pjTEBmYC1_ZTYM2vS1I1-1696" vertex="1" connectable="0">
          <mxGeometry x="220" y="20" width="110" height="122.5" as="geometry" />
        </mxCell>
        <mxCell id="pjTEBmYC1_ZTYM2vS1I1-1724" value="" style="strokeWidth=2;html=1;shape=mxgraph.flowchart.annotation_1;align=left;pointerEvents=1;fillColor=none;opacity=30;" parent="pjTEBmYC1_ZTYM2vS1I1-1723" vertex="1">
          <mxGeometry width="10" height="100" as="geometry" />
        </mxCell>
        <mxCell id="pjTEBmYC1_ZTYM2vS1I1-1725" value="" style="strokeWidth=2;html=1;shape=mxgraph.flowchart.annotation_1;align=left;pointerEvents=1;rotation=-180;fillColor=none;opacity=30;" parent="pjTEBmYC1_ZTYM2vS1I1-1723" vertex="1">
          <mxGeometry x="30" width="10" height="100" as="geometry" />
        </mxCell>
        <mxCell id="pjTEBmYC1_ZTYM2vS1I1-1726" value="" style="rounded=1;whiteSpace=wrap;html=1;absoluteArcSize=1;arcSize=14;strokeWidth=2;fillColor=none;opacity=30;" parent="pjTEBmYC1_ZTYM2vS1I1-1723" vertex="1">
          <mxGeometry x="10" y="10" width="20" height="20" as="geometry" />
        </mxCell>
        <mxCell id="pjTEBmYC1_ZTYM2vS1I1-1727" value="" style="rounded=1;whiteSpace=wrap;html=1;absoluteArcSize=1;arcSize=14;strokeWidth=2;fillColor=none;opacity=30;" parent="pjTEBmYC1_ZTYM2vS1I1-1723" vertex="1">
          <mxGeometry x="10" y="40" width="20" height="20" as="geometry" />
        </mxCell>
        <mxCell id="pjTEBmYC1_ZTYM2vS1I1-1728" value="" style="rounded=1;whiteSpace=wrap;html=1;absoluteArcSize=1;arcSize=14;strokeWidth=2;fillColor=none;opacity=30;" parent="pjTEBmYC1_ZTYM2vS1I1-1723" vertex="1">
          <mxGeometry x="10" y="70" width="20" height="20" as="geometry" />
        </mxCell>
        <mxCell id="pjTEBmYC1_ZTYM2vS1I1-1729" value="" style="strokeWidth=2;html=1;shape=mxgraph.flowchart.annotation_1;align=left;pointerEvents=1;fillColor=none;rotation=-180;opacity=30;" parent="pjTEBmYC1_ZTYM2vS1I1-1723" vertex="1">
          <mxGeometry x="30" y="-20" width="30" height="140" as="geometry" />
        </mxCell>
        <mxCell id="pjTEBmYC1_ZTYM2vS1I1-1730" value="" style="group;opacity=30;" parent="pjTEBmYC1_ZTYM2vS1I1-1695" vertex="1" connectable="0">
          <mxGeometry x="20" y="167.5" width="330" height="307.5" as="geometry" />
        </mxCell>
        <mxCell id="pjTEBmYC1_ZTYM2vS1I1-1731" value="" style="rounded=0;whiteSpace=wrap;html=1;strokeColor=none;opacity=30;" parent="pjTEBmYC1_ZTYM2vS1I1-1730" vertex="1">
          <mxGeometry width="280" height="140" as="geometry" />
        </mxCell>
        <mxCell id="pjTEBmYC1_ZTYM2vS1I1-1732" value="" style="strokeWidth=2;html=1;shape=mxgraph.flowchart.annotation_1;align=left;pointerEvents=1;fillColor=none;opacity=30;" parent="pjTEBmYC1_ZTYM2vS1I1-1730" vertex="1">
          <mxGeometry width="30" height="140" as="geometry" />
        </mxCell>
        <mxCell id="pjTEBmYC1_ZTYM2vS1I1-1733" value="" style="group;fillColor=none;opacity=30;" parent="pjTEBmYC1_ZTYM2vS1I1-1730" vertex="1" connectable="0">
          <mxGeometry x="70" y="20" width="110" height="122.5" as="geometry" />
        </mxCell>
        <mxCell id="pjTEBmYC1_ZTYM2vS1I1-1734" value="" style="strokeWidth=2;html=1;shape=mxgraph.flowchart.annotation_1;align=left;pointerEvents=1;fillColor=none;opacity=30;" parent="pjTEBmYC1_ZTYM2vS1I1-1733" vertex="1">
          <mxGeometry width="10" height="100" as="geometry" />
        </mxCell>
        <mxCell id="pjTEBmYC1_ZTYM2vS1I1-1735" value="" style="strokeWidth=2;html=1;shape=mxgraph.flowchart.annotation_1;align=left;pointerEvents=1;rotation=-180;fillColor=none;opacity=30;" parent="pjTEBmYC1_ZTYM2vS1I1-1733" vertex="1">
          <mxGeometry x="30" width="10" height="100" as="geometry" />
        </mxCell>
        <mxCell id="pjTEBmYC1_ZTYM2vS1I1-1736" value="" style="rounded=1;whiteSpace=wrap;html=1;absoluteArcSize=1;arcSize=14;strokeWidth=2;fillColor=none;opacity=30;" parent="pjTEBmYC1_ZTYM2vS1I1-1733" vertex="1">
          <mxGeometry x="10" y="10" width="20" height="20" as="geometry" />
        </mxCell>
        <mxCell id="pjTEBmYC1_ZTYM2vS1I1-1737" value="" style="rounded=1;whiteSpace=wrap;html=1;absoluteArcSize=1;arcSize=14;strokeWidth=2;fillColor=none;opacity=30;" parent="pjTEBmYC1_ZTYM2vS1I1-1733" vertex="1">
          <mxGeometry x="10" y="40" width="20" height="20" as="geometry" />
        </mxCell>
        <mxCell id="pjTEBmYC1_ZTYM2vS1I1-1738" value="" style="rounded=1;whiteSpace=wrap;html=1;absoluteArcSize=1;arcSize=14;strokeWidth=2;fillColor=none;opacity=30;" parent="pjTEBmYC1_ZTYM2vS1I1-1733" vertex="1">
          <mxGeometry x="10" y="70" width="20" height="20" as="geometry" />
        </mxCell>
        <mxCell id="pjTEBmYC1_ZTYM2vS1I1-1739" value="" style="group;fillColor=none;opacity=30;" parent="pjTEBmYC1_ZTYM2vS1I1-1730" vertex="1" connectable="0">
          <mxGeometry x="120" y="20" width="160" height="122.5" as="geometry" />
        </mxCell>
        <mxCell id="pjTEBmYC1_ZTYM2vS1I1-1740" value="" style="strokeWidth=2;html=1;shape=mxgraph.flowchart.annotation_1;align=left;pointerEvents=1;fillColor=none;opacity=30;" parent="pjTEBmYC1_ZTYM2vS1I1-1739" vertex="1">
          <mxGeometry width="10" height="100" as="geometry" />
        </mxCell>
        <mxCell id="pjTEBmYC1_ZTYM2vS1I1-1741" value="" style="strokeWidth=2;html=1;shape=mxgraph.flowchart.annotation_1;align=left;pointerEvents=1;rotation=-180;fillColor=none;opacity=30;" parent="pjTEBmYC1_ZTYM2vS1I1-1739" vertex="1">
          <mxGeometry x="30" width="10" height="100" as="geometry" />
        </mxCell>
        <mxCell id="pjTEBmYC1_ZTYM2vS1I1-1742" value="" style="rounded=1;whiteSpace=wrap;html=1;absoluteArcSize=1;arcSize=14;strokeWidth=2;fillColor=none;opacity=30;" parent="pjTEBmYC1_ZTYM2vS1I1-1739" vertex="1">
          <mxGeometry x="10" y="10" width="20" height="20" as="geometry" />
        </mxCell>
        <mxCell id="pjTEBmYC1_ZTYM2vS1I1-1743" value="" style="rounded=1;whiteSpace=wrap;html=1;absoluteArcSize=1;arcSize=14;strokeWidth=2;fillColor=none;opacity=30;" parent="pjTEBmYC1_ZTYM2vS1I1-1739" vertex="1">
          <mxGeometry x="10" y="40" width="20" height="20" as="geometry" />
        </mxCell>
        <mxCell id="pjTEBmYC1_ZTYM2vS1I1-1744" value="" style="rounded=1;whiteSpace=wrap;html=1;absoluteArcSize=1;arcSize=14;strokeWidth=2;fillColor=none;opacity=30;" parent="pjTEBmYC1_ZTYM2vS1I1-1739" vertex="1">
          <mxGeometry x="10" y="70" width="20" height="20" as="geometry" />
        </mxCell>
        <mxCell id="pjTEBmYC1_ZTYM2vS1I1-1745" value="" style="group;fillColor=none;opacity=30;" parent="pjTEBmYC1_ZTYM2vS1I1-1739" vertex="1" connectable="0">
          <mxGeometry x="50" width="110" height="122.5" as="geometry" />
        </mxCell>
        <mxCell id="pjTEBmYC1_ZTYM2vS1I1-1746" value="" style="strokeWidth=2;html=1;shape=mxgraph.flowchart.annotation_1;align=left;pointerEvents=1;fillColor=none;opacity=30;" parent="pjTEBmYC1_ZTYM2vS1I1-1745" vertex="1">
          <mxGeometry width="10" height="100" as="geometry" />
        </mxCell>
        <mxCell id="pjTEBmYC1_ZTYM2vS1I1-1747" value="" style="strokeWidth=2;html=1;shape=mxgraph.flowchart.annotation_1;align=left;pointerEvents=1;rotation=-180;fillColor=none;opacity=30;" parent="pjTEBmYC1_ZTYM2vS1I1-1745" vertex="1">
          <mxGeometry x="30" width="10" height="100" as="geometry" />
        </mxCell>
        <mxCell id="pjTEBmYC1_ZTYM2vS1I1-1748" value="" style="rounded=1;whiteSpace=wrap;html=1;absoluteArcSize=1;arcSize=14;strokeWidth=2;fillColor=none;opacity=30;" parent="pjTEBmYC1_ZTYM2vS1I1-1745" vertex="1">
          <mxGeometry x="10" y="10" width="20" height="20" as="geometry" />
        </mxCell>
        <mxCell id="pjTEBmYC1_ZTYM2vS1I1-1749" value="" style="rounded=1;whiteSpace=wrap;html=1;absoluteArcSize=1;arcSize=14;strokeWidth=2;fillColor=none;opacity=30;" parent="pjTEBmYC1_ZTYM2vS1I1-1745" vertex="1">
          <mxGeometry x="10" y="40" width="20" height="20" as="geometry" />
        </mxCell>
        <mxCell id="pjTEBmYC1_ZTYM2vS1I1-1750" value="" style="rounded=1;whiteSpace=wrap;html=1;absoluteArcSize=1;arcSize=14;strokeWidth=2;fillColor=none;direction=south;opacity=30;" parent="pjTEBmYC1_ZTYM2vS1I1-1745" vertex="1">
          <mxGeometry x="10" y="70" width="20" height="20" as="geometry" />
        </mxCell>
        <mxCell id="pjTEBmYC1_ZTYM2vS1I1-1751" value="" style="group;fillColor=none;opacity=30;" parent="pjTEBmYC1_ZTYM2vS1I1-1730" vertex="1" connectable="0">
          <mxGeometry x="20" y="20" width="110" height="122.5" as="geometry" />
        </mxCell>
        <mxCell id="pjTEBmYC1_ZTYM2vS1I1-1752" value="" style="strokeWidth=2;html=1;shape=mxgraph.flowchart.annotation_1;align=left;pointerEvents=1;fillColor=none;opacity=30;" parent="pjTEBmYC1_ZTYM2vS1I1-1751" vertex="1">
          <mxGeometry width="10" height="100" as="geometry" />
        </mxCell>
        <mxCell id="pjTEBmYC1_ZTYM2vS1I1-1753" value="" style="strokeWidth=2;html=1;shape=mxgraph.flowchart.annotation_1;align=left;pointerEvents=1;rotation=-180;fillColor=none;opacity=30;" parent="pjTEBmYC1_ZTYM2vS1I1-1751" vertex="1">
          <mxGeometry x="30" width="10" height="100" as="geometry" />
        </mxCell>
        <mxCell id="pjTEBmYC1_ZTYM2vS1I1-1754" value="" style="rounded=1;whiteSpace=wrap;html=1;absoluteArcSize=1;arcSize=14;strokeWidth=2;fillColor=none;opacity=30;" parent="pjTEBmYC1_ZTYM2vS1I1-1751" vertex="1">
          <mxGeometry x="10" y="10" width="20" height="20" as="geometry" />
        </mxCell>
        <mxCell id="pjTEBmYC1_ZTYM2vS1I1-1755" value="" style="rounded=1;whiteSpace=wrap;html=1;absoluteArcSize=1;arcSize=14;strokeWidth=2;fillColor=none;opacity=30;" parent="pjTEBmYC1_ZTYM2vS1I1-1751" vertex="1">
          <mxGeometry x="10" y="40" width="20" height="20" as="geometry" />
        </mxCell>
        <mxCell id="pjTEBmYC1_ZTYM2vS1I1-1756" value="" style="rounded=1;whiteSpace=wrap;html=1;absoluteArcSize=1;arcSize=14;strokeWidth=2;fillColor=none;opacity=30;" parent="pjTEBmYC1_ZTYM2vS1I1-1751" vertex="1">
          <mxGeometry x="10" y="70" width="20" height="20" as="geometry" />
        </mxCell>
        <mxCell id="pjTEBmYC1_ZTYM2vS1I1-1757" value="" style="group;fillColor=none;opacity=30;" parent="pjTEBmYC1_ZTYM2vS1I1-1730" vertex="1" connectable="0">
          <mxGeometry x="220" y="20" width="110" height="287.5" as="geometry" />
        </mxCell>
        <mxCell id="pjTEBmYC1_ZTYM2vS1I1-1758" value="" style="strokeWidth=2;html=1;shape=mxgraph.flowchart.annotation_1;align=left;pointerEvents=1;fillColor=none;opacity=30;" parent="pjTEBmYC1_ZTYM2vS1I1-1757" vertex="1">
          <mxGeometry width="10" height="100" as="geometry" />
        </mxCell>
        <mxCell id="pjTEBmYC1_ZTYM2vS1I1-1759" value="" style="strokeWidth=2;html=1;shape=mxgraph.flowchart.annotation_1;align=left;pointerEvents=1;rotation=-180;fillColor=none;opacity=30;" parent="pjTEBmYC1_ZTYM2vS1I1-1757" vertex="1">
          <mxGeometry x="30" width="10" height="100" as="geometry" />
        </mxCell>
        <mxCell id="pjTEBmYC1_ZTYM2vS1I1-1760" value="" style="rounded=1;whiteSpace=wrap;html=1;absoluteArcSize=1;arcSize=14;strokeWidth=2;fillColor=none;opacity=30;" parent="pjTEBmYC1_ZTYM2vS1I1-1757" vertex="1">
          <mxGeometry x="10" y="10" width="20" height="20" as="geometry" />
        </mxCell>
        <mxCell id="pjTEBmYC1_ZTYM2vS1I1-1761" value="" style="rounded=1;whiteSpace=wrap;html=1;absoluteArcSize=1;arcSize=14;strokeWidth=2;fillColor=none;opacity=30;" parent="pjTEBmYC1_ZTYM2vS1I1-1757" vertex="1">
          <mxGeometry x="10" y="40" width="20" height="20" as="geometry" />
        </mxCell>
        <mxCell id="pjTEBmYC1_ZTYM2vS1I1-1762" value="" style="rounded=1;whiteSpace=wrap;html=1;absoluteArcSize=1;arcSize=14;strokeWidth=2;fillColor=none;opacity=30;" parent="pjTEBmYC1_ZTYM2vS1I1-1757" vertex="1">
          <mxGeometry x="10" y="70" width="20" height="20" as="geometry" />
        </mxCell>
        <mxCell id="pjTEBmYC1_ZTYM2vS1I1-1763" value="" style="strokeWidth=2;html=1;shape=mxgraph.flowchart.annotation_1;align=left;pointerEvents=1;fillColor=none;rotation=-180;opacity=30;" parent="pjTEBmYC1_ZTYM2vS1I1-1757" vertex="1">
          <mxGeometry x="30" y="-20" width="30" height="140" as="geometry" />
        </mxCell>
        <mxCell id="pjTEBmYC1_ZTYM2vS1I1-1764" value="" style="strokeWidth=2;html=1;shape=mxgraph.flowchart.annotation_1;align=left;pointerEvents=1;rotation=-180;opacity=30;" parent="pjTEBmYC1_ZTYM2vS1I1-1757" vertex="1">
          <mxGeometry x="30" y="-190" width="50" height="477.5" as="geometry" />
        </mxCell>
        <mxCell id="pjTEBmYC1_ZTYM2vS1I1-1765" value="" style="group;opacity=30;" parent="pjTEBmYC1_ZTYM2vS1I1-1695" vertex="1" connectable="0">
          <mxGeometry x="20" y="317.5" width="330" height="142.5" as="geometry" />
        </mxCell>
        <mxCell id="pjTEBmYC1_ZTYM2vS1I1-1766" value="" style="rounded=0;whiteSpace=wrap;html=1;strokeColor=none;opacity=30;" parent="pjTEBmYC1_ZTYM2vS1I1-1765" vertex="1">
          <mxGeometry width="280" height="140" as="geometry" />
        </mxCell>
        <mxCell id="pjTEBmYC1_ZTYM2vS1I1-1767" value="" style="strokeWidth=2;html=1;shape=mxgraph.flowchart.annotation_1;align=left;pointerEvents=1;fillColor=none;opacity=30;" parent="pjTEBmYC1_ZTYM2vS1I1-1765" vertex="1">
          <mxGeometry width="30" height="140" as="geometry" />
        </mxCell>
        <mxCell id="pjTEBmYC1_ZTYM2vS1I1-1768" value="" style="group;fillColor=none;opacity=30;" parent="pjTEBmYC1_ZTYM2vS1I1-1765" vertex="1" connectable="0">
          <mxGeometry x="70" y="20" width="110" height="122.5" as="geometry" />
        </mxCell>
        <mxCell id="pjTEBmYC1_ZTYM2vS1I1-1769" value="" style="strokeWidth=2;html=1;shape=mxgraph.flowchart.annotation_1;align=left;pointerEvents=1;fillColor=none;opacity=30;" parent="pjTEBmYC1_ZTYM2vS1I1-1768" vertex="1">
          <mxGeometry width="10" height="100" as="geometry" />
        </mxCell>
        <mxCell id="pjTEBmYC1_ZTYM2vS1I1-1770" value="" style="strokeWidth=2;html=1;shape=mxgraph.flowchart.annotation_1;align=left;pointerEvents=1;rotation=-180;fillColor=none;opacity=30;" parent="pjTEBmYC1_ZTYM2vS1I1-1768" vertex="1">
          <mxGeometry x="30" width="10" height="100" as="geometry" />
        </mxCell>
        <mxCell id="pjTEBmYC1_ZTYM2vS1I1-1771" value="" style="rounded=1;whiteSpace=wrap;html=1;absoluteArcSize=1;arcSize=14;strokeWidth=2;fillColor=none;opacity=30;" parent="pjTEBmYC1_ZTYM2vS1I1-1768" vertex="1">
          <mxGeometry x="10" y="10" width="20" height="20" as="geometry" />
        </mxCell>
        <mxCell id="pjTEBmYC1_ZTYM2vS1I1-1772" value="" style="rounded=1;whiteSpace=wrap;html=1;absoluteArcSize=1;arcSize=14;strokeWidth=2;fillColor=none;opacity=30;" parent="pjTEBmYC1_ZTYM2vS1I1-1768" vertex="1">
          <mxGeometry x="10" y="40" width="20" height="20" as="geometry" />
        </mxCell>
        <mxCell id="pjTEBmYC1_ZTYM2vS1I1-1773" value="" style="rounded=1;whiteSpace=wrap;html=1;absoluteArcSize=1;arcSize=14;strokeWidth=2;fillColor=none;opacity=30;" parent="pjTEBmYC1_ZTYM2vS1I1-1768" vertex="1">
          <mxGeometry x="10" y="70" width="20" height="20" as="geometry" />
        </mxCell>
        <mxCell id="pjTEBmYC1_ZTYM2vS1I1-1774" value="" style="group;fillColor=none;opacity=30;" parent="pjTEBmYC1_ZTYM2vS1I1-1765" vertex="1" connectable="0">
          <mxGeometry x="120" y="20" width="160" height="122.5" as="geometry" />
        </mxCell>
        <mxCell id="pjTEBmYC1_ZTYM2vS1I1-1775" value="" style="strokeWidth=2;html=1;shape=mxgraph.flowchart.annotation_1;align=left;pointerEvents=1;fillColor=none;opacity=30;" parent="pjTEBmYC1_ZTYM2vS1I1-1774" vertex="1">
          <mxGeometry width="10" height="100" as="geometry" />
        </mxCell>
        <mxCell id="pjTEBmYC1_ZTYM2vS1I1-1776" value="" style="strokeWidth=2;html=1;shape=mxgraph.flowchart.annotation_1;align=left;pointerEvents=1;rotation=-180;fillColor=none;opacity=30;" parent="pjTEBmYC1_ZTYM2vS1I1-1774" vertex="1">
          <mxGeometry x="30" width="10" height="100" as="geometry" />
        </mxCell>
        <mxCell id="pjTEBmYC1_ZTYM2vS1I1-1777" value="" style="rounded=1;whiteSpace=wrap;html=1;absoluteArcSize=1;arcSize=14;strokeWidth=2;fillColor=none;opacity=30;" parent="pjTEBmYC1_ZTYM2vS1I1-1774" vertex="1">
          <mxGeometry x="10" y="10" width="20" height="20" as="geometry" />
        </mxCell>
        <mxCell id="pjTEBmYC1_ZTYM2vS1I1-1778" value="" style="rounded=1;whiteSpace=wrap;html=1;absoluteArcSize=1;arcSize=14;strokeWidth=2;fillColor=none;opacity=30;" parent="pjTEBmYC1_ZTYM2vS1I1-1774" vertex="1">
          <mxGeometry x="10" y="40" width="20" height="20" as="geometry" />
        </mxCell>
        <mxCell id="pjTEBmYC1_ZTYM2vS1I1-1779" value="" style="rounded=1;whiteSpace=wrap;html=1;absoluteArcSize=1;arcSize=14;strokeWidth=2;fillColor=none;opacity=30;" parent="pjTEBmYC1_ZTYM2vS1I1-1774" vertex="1">
          <mxGeometry x="10" y="70" width="20" height="20" as="geometry" />
        </mxCell>
        <mxCell id="pjTEBmYC1_ZTYM2vS1I1-1780" value="" style="group;fillColor=none;opacity=30;" parent="pjTEBmYC1_ZTYM2vS1I1-1774" vertex="1" connectable="0">
          <mxGeometry x="50" width="110" height="122.5" as="geometry" />
        </mxCell>
        <mxCell id="pjTEBmYC1_ZTYM2vS1I1-1781" value="" style="strokeWidth=2;html=1;shape=mxgraph.flowchart.annotation_1;align=left;pointerEvents=1;fillColor=none;opacity=30;" parent="pjTEBmYC1_ZTYM2vS1I1-1780" vertex="1">
          <mxGeometry width="10" height="100" as="geometry" />
        </mxCell>
        <mxCell id="pjTEBmYC1_ZTYM2vS1I1-1782" value="" style="strokeWidth=2;html=1;shape=mxgraph.flowchart.annotation_1;align=left;pointerEvents=1;rotation=-180;fillColor=none;opacity=30;" parent="pjTEBmYC1_ZTYM2vS1I1-1780" vertex="1">
          <mxGeometry x="30" width="10" height="100" as="geometry" />
        </mxCell>
        <mxCell id="pjTEBmYC1_ZTYM2vS1I1-1783" value="" style="rounded=1;whiteSpace=wrap;html=1;absoluteArcSize=1;arcSize=14;strokeWidth=2;fillColor=none;opacity=30;" parent="pjTEBmYC1_ZTYM2vS1I1-1780" vertex="1">
          <mxGeometry x="10" y="10" width="20" height="20" as="geometry" />
        </mxCell>
        <mxCell id="pjTEBmYC1_ZTYM2vS1I1-1784" value="" style="rounded=1;whiteSpace=wrap;html=1;absoluteArcSize=1;arcSize=14;strokeWidth=2;fillColor=none;opacity=30;" parent="pjTEBmYC1_ZTYM2vS1I1-1780" vertex="1">
          <mxGeometry x="10" y="40" width="20" height="20" as="geometry" />
        </mxCell>
        <mxCell id="pjTEBmYC1_ZTYM2vS1I1-1785" value="" style="rounded=1;whiteSpace=wrap;html=1;absoluteArcSize=1;arcSize=14;strokeWidth=2;fillColor=none;direction=south;opacity=30;" parent="pjTEBmYC1_ZTYM2vS1I1-1780" vertex="1">
          <mxGeometry x="10" y="70" width="20" height="20" as="geometry" />
        </mxCell>
        <mxCell id="pjTEBmYC1_ZTYM2vS1I1-1786" value="" style="group;fillColor=none;opacity=30;" parent="pjTEBmYC1_ZTYM2vS1I1-1765" vertex="1" connectable="0">
          <mxGeometry x="20" y="20" width="110" height="122.5" as="geometry" />
        </mxCell>
        <mxCell id="pjTEBmYC1_ZTYM2vS1I1-1787" value="" style="strokeWidth=2;html=1;shape=mxgraph.flowchart.annotation_1;align=left;pointerEvents=1;fillColor=none;opacity=30;" parent="pjTEBmYC1_ZTYM2vS1I1-1786" vertex="1">
          <mxGeometry width="10" height="100" as="geometry" />
        </mxCell>
        <mxCell id="pjTEBmYC1_ZTYM2vS1I1-1788" value="" style="strokeWidth=2;html=1;shape=mxgraph.flowchart.annotation_1;align=left;pointerEvents=1;rotation=-180;fillColor=none;opacity=30;" parent="pjTEBmYC1_ZTYM2vS1I1-1786" vertex="1">
          <mxGeometry x="30" width="10" height="100" as="geometry" />
        </mxCell>
        <mxCell id="pjTEBmYC1_ZTYM2vS1I1-1789" value="" style="rounded=1;whiteSpace=wrap;html=1;absoluteArcSize=1;arcSize=14;strokeWidth=2;fillColor=none;opacity=30;" parent="pjTEBmYC1_ZTYM2vS1I1-1786" vertex="1">
          <mxGeometry x="10" y="10" width="20" height="20" as="geometry" />
        </mxCell>
        <mxCell id="pjTEBmYC1_ZTYM2vS1I1-1790" value="" style="rounded=1;whiteSpace=wrap;html=1;absoluteArcSize=1;arcSize=14;strokeWidth=2;fillColor=none;opacity=30;" parent="pjTEBmYC1_ZTYM2vS1I1-1786" vertex="1">
          <mxGeometry x="10" y="40" width="20" height="20" as="geometry" />
        </mxCell>
        <mxCell id="pjTEBmYC1_ZTYM2vS1I1-1791" value="" style="rounded=1;whiteSpace=wrap;html=1;absoluteArcSize=1;arcSize=14;strokeWidth=2;fillColor=none;opacity=30;" parent="pjTEBmYC1_ZTYM2vS1I1-1786" vertex="1">
          <mxGeometry x="10" y="70" width="20" height="20" as="geometry" />
        </mxCell>
        <mxCell id="pjTEBmYC1_ZTYM2vS1I1-1792" value="" style="group;fillColor=none;opacity=30;" parent="pjTEBmYC1_ZTYM2vS1I1-1765" vertex="1" connectable="0">
          <mxGeometry x="220" y="20" width="110" height="122.5" as="geometry" />
        </mxCell>
        <mxCell id="pjTEBmYC1_ZTYM2vS1I1-1793" value="" style="strokeWidth=2;html=1;shape=mxgraph.flowchart.annotation_1;align=left;pointerEvents=1;fillColor=none;opacity=30;" parent="pjTEBmYC1_ZTYM2vS1I1-1792" vertex="1">
          <mxGeometry width="10" height="100" as="geometry" />
        </mxCell>
        <mxCell id="pjTEBmYC1_ZTYM2vS1I1-1794" value="" style="strokeWidth=2;html=1;shape=mxgraph.flowchart.annotation_1;align=left;pointerEvents=1;rotation=-180;fillColor=none;opacity=30;" parent="pjTEBmYC1_ZTYM2vS1I1-1792" vertex="1">
          <mxGeometry x="30" width="10" height="100" as="geometry" />
        </mxCell>
        <mxCell id="pjTEBmYC1_ZTYM2vS1I1-1795" value="" style="rounded=1;whiteSpace=wrap;html=1;absoluteArcSize=1;arcSize=14;strokeWidth=2;fillColor=none;opacity=30;" parent="pjTEBmYC1_ZTYM2vS1I1-1792" vertex="1">
          <mxGeometry x="10" y="10" width="20" height="20" as="geometry" />
        </mxCell>
        <mxCell id="pjTEBmYC1_ZTYM2vS1I1-1796" value="" style="rounded=1;whiteSpace=wrap;html=1;absoluteArcSize=1;arcSize=14;strokeWidth=2;fillColor=none;opacity=30;" parent="pjTEBmYC1_ZTYM2vS1I1-1792" vertex="1">
          <mxGeometry x="10" y="40" width="20" height="20" as="geometry" />
        </mxCell>
        <mxCell id="pjTEBmYC1_ZTYM2vS1I1-1797" value="" style="rounded=1;whiteSpace=wrap;html=1;absoluteArcSize=1;arcSize=14;strokeWidth=2;fillColor=none;opacity=30;" parent="pjTEBmYC1_ZTYM2vS1I1-1792" vertex="1">
          <mxGeometry x="10" y="70" width="20" height="20" as="geometry" />
        </mxCell>
        <mxCell id="pjTEBmYC1_ZTYM2vS1I1-1798" value="" style="strokeWidth=2;html=1;shape=mxgraph.flowchart.annotation_1;align=left;pointerEvents=1;fillColor=none;rotation=-180;opacity=30;" parent="pjTEBmYC1_ZTYM2vS1I1-1792" vertex="1">
          <mxGeometry x="30" y="-20" width="30" height="140" as="geometry" />
        </mxCell>
        <mxCell id="pjTEBmYC1_ZTYM2vS1I1-1799" value="" style="strokeWidth=2;html=1;shape=mxgraph.flowchart.annotation_1;align=left;pointerEvents=1;opacity=30;" parent="pjTEBmYC1_ZTYM2vS1I1-1695" vertex="1">
          <mxGeometry width="50" height="477.5" as="geometry" />
        </mxCell>
        <mxCell id="pjTEBmYC1_ZTYM2vS1I1-1800" value="" style="group" parent="pjTEBmYC1_ZTYM2vS1I1-1905" vertex="1" connectable="0">
          <mxGeometry y="30" width="600" height="607.5" as="geometry" />
        </mxCell>
        <mxCell id="pjTEBmYC1_ZTYM2vS1I1-1801" value="" style="group" parent="pjTEBmYC1_ZTYM2vS1I1-1800" vertex="1" connectable="0">
          <mxGeometry x="20" y="17.5" width="350" height="491.5" as="geometry" />
        </mxCell>
        <mxCell id="pjTEBmYC1_ZTYM2vS1I1-1802" value="" style="rounded=0;whiteSpace=wrap;html=1;strokeColor=none;" parent="pjTEBmYC1_ZTYM2vS1I1-1801" vertex="1">
          <mxGeometry x="-20" y="-20" width="320" height="480" as="geometry" />
        </mxCell>
        <mxCell id="pjTEBmYC1_ZTYM2vS1I1-1803" value="" style="strokeWidth=2;html=1;shape=mxgraph.flowchart.annotation_1;align=left;pointerEvents=1;fillColor=none;" parent="pjTEBmYC1_ZTYM2vS1I1-1801" vertex="1">
          <mxGeometry width="30" height="140" as="geometry" />
        </mxCell>
        <mxCell id="pjTEBmYC1_ZTYM2vS1I1-1804" value="" style="group;fillColor=none;" parent="pjTEBmYC1_ZTYM2vS1I1-1801" vertex="1" connectable="0">
          <mxGeometry x="70" y="20" width="110" height="122.5" as="geometry" />
        </mxCell>
        <mxCell id="pjTEBmYC1_ZTYM2vS1I1-1805" value="" style="strokeWidth=2;html=1;shape=mxgraph.flowchart.annotation_1;align=left;pointerEvents=1;fillColor=none;" parent="pjTEBmYC1_ZTYM2vS1I1-1804" vertex="1">
          <mxGeometry width="10" height="100" as="geometry" />
        </mxCell>
        <mxCell id="pjTEBmYC1_ZTYM2vS1I1-1806" value="" style="strokeWidth=2;html=1;shape=mxgraph.flowchart.annotation_1;align=left;pointerEvents=1;rotation=-180;fillColor=none;" parent="pjTEBmYC1_ZTYM2vS1I1-1804" vertex="1">
          <mxGeometry x="30" width="10" height="100" as="geometry" />
        </mxCell>
        <mxCell id="pjTEBmYC1_ZTYM2vS1I1-1807" value="" style="rounded=1;whiteSpace=wrap;html=1;absoluteArcSize=1;arcSize=14;strokeWidth=2;fillColor=none;" parent="pjTEBmYC1_ZTYM2vS1I1-1804" vertex="1">
          <mxGeometry x="10" y="10" width="20" height="20" as="geometry" />
        </mxCell>
        <mxCell id="pjTEBmYC1_ZTYM2vS1I1-1808" value="" style="rounded=1;whiteSpace=wrap;html=1;absoluteArcSize=1;arcSize=14;strokeWidth=2;fillColor=none;" parent="pjTEBmYC1_ZTYM2vS1I1-1804" vertex="1">
          <mxGeometry x="10" y="40" width="20" height="20" as="geometry" />
        </mxCell>
        <mxCell id="pjTEBmYC1_ZTYM2vS1I1-1809" value="" style="rounded=1;whiteSpace=wrap;html=1;absoluteArcSize=1;arcSize=14;strokeWidth=2;fillColor=none;" parent="pjTEBmYC1_ZTYM2vS1I1-1804" vertex="1">
          <mxGeometry x="10" y="70" width="20" height="20" as="geometry" />
        </mxCell>
        <mxCell id="pjTEBmYC1_ZTYM2vS1I1-1810" value="" style="group;fillColor=none;" parent="pjTEBmYC1_ZTYM2vS1I1-1801" vertex="1" connectable="0">
          <mxGeometry x="120" y="20" width="160" height="122.5" as="geometry" />
        </mxCell>
        <mxCell id="pjTEBmYC1_ZTYM2vS1I1-1811" value="" style="strokeWidth=2;html=1;shape=mxgraph.flowchart.annotation_1;align=left;pointerEvents=1;fillColor=none;" parent="pjTEBmYC1_ZTYM2vS1I1-1810" vertex="1">
          <mxGeometry width="10" height="100" as="geometry" />
        </mxCell>
        <mxCell id="pjTEBmYC1_ZTYM2vS1I1-1812" value="" style="strokeWidth=2;html=1;shape=mxgraph.flowchart.annotation_1;align=left;pointerEvents=1;rotation=-180;fillColor=none;" parent="pjTEBmYC1_ZTYM2vS1I1-1810" vertex="1">
          <mxGeometry x="30" width="10" height="100" as="geometry" />
        </mxCell>
        <mxCell id="pjTEBmYC1_ZTYM2vS1I1-1813" value="" style="rounded=1;whiteSpace=wrap;html=1;absoluteArcSize=1;arcSize=14;strokeWidth=2;fillColor=none;" parent="pjTEBmYC1_ZTYM2vS1I1-1810" vertex="1">
          <mxGeometry x="10" y="10" width="20" height="20" as="geometry" />
        </mxCell>
        <mxCell id="pjTEBmYC1_ZTYM2vS1I1-1814" value="" style="rounded=1;whiteSpace=wrap;html=1;absoluteArcSize=1;arcSize=14;strokeWidth=2;fillColor=none;" parent="pjTEBmYC1_ZTYM2vS1I1-1810" vertex="1">
          <mxGeometry x="10" y="40" width="20" height="20" as="geometry" />
        </mxCell>
        <mxCell id="pjTEBmYC1_ZTYM2vS1I1-1815" value="" style="rounded=1;whiteSpace=wrap;html=1;absoluteArcSize=1;arcSize=14;strokeWidth=2;fillColor=none;" parent="pjTEBmYC1_ZTYM2vS1I1-1810" vertex="1">
          <mxGeometry x="10" y="70" width="20" height="20" as="geometry" />
        </mxCell>
        <mxCell id="pjTEBmYC1_ZTYM2vS1I1-1816" value="" style="group;fillColor=none;" parent="pjTEBmYC1_ZTYM2vS1I1-1810" vertex="1" connectable="0">
          <mxGeometry x="50" width="110" height="122.5" as="geometry" />
        </mxCell>
        <mxCell id="pjTEBmYC1_ZTYM2vS1I1-1817" value="" style="strokeWidth=2;html=1;shape=mxgraph.flowchart.annotation_1;align=left;pointerEvents=1;fillColor=none;" parent="pjTEBmYC1_ZTYM2vS1I1-1816" vertex="1">
          <mxGeometry width="10" height="100" as="geometry" />
        </mxCell>
        <mxCell id="pjTEBmYC1_ZTYM2vS1I1-1818" value="" style="strokeWidth=2;html=1;shape=mxgraph.flowchart.annotation_1;align=left;pointerEvents=1;rotation=-180;fillColor=none;" parent="pjTEBmYC1_ZTYM2vS1I1-1816" vertex="1">
          <mxGeometry x="30" width="10" height="100" as="geometry" />
        </mxCell>
        <mxCell id="pjTEBmYC1_ZTYM2vS1I1-1819" value="" style="rounded=1;whiteSpace=wrap;html=1;absoluteArcSize=1;arcSize=14;strokeWidth=2;fillColor=none;" parent="pjTEBmYC1_ZTYM2vS1I1-1816" vertex="1">
          <mxGeometry x="10" y="10" width="20" height="20" as="geometry" />
        </mxCell>
        <mxCell id="pjTEBmYC1_ZTYM2vS1I1-1820" value="" style="rounded=1;whiteSpace=wrap;html=1;absoluteArcSize=1;arcSize=14;strokeWidth=2;fillColor=none;" parent="pjTEBmYC1_ZTYM2vS1I1-1816" vertex="1">
          <mxGeometry x="10" y="40" width="20" height="20" as="geometry" />
        </mxCell>
        <mxCell id="pjTEBmYC1_ZTYM2vS1I1-1821" value="" style="rounded=1;whiteSpace=wrap;html=1;absoluteArcSize=1;arcSize=14;strokeWidth=2;fillColor=none;direction=south;" parent="pjTEBmYC1_ZTYM2vS1I1-1816" vertex="1">
          <mxGeometry x="10" y="70" width="20" height="20" as="geometry" />
        </mxCell>
        <mxCell id="pjTEBmYC1_ZTYM2vS1I1-1822" value="" style="group;fillColor=none;" parent="pjTEBmYC1_ZTYM2vS1I1-1801" vertex="1" connectable="0">
          <mxGeometry x="20" y="20" width="110" height="122.5" as="geometry" />
        </mxCell>
        <mxCell id="pjTEBmYC1_ZTYM2vS1I1-1823" value="" style="strokeWidth=2;html=1;shape=mxgraph.flowchart.annotation_1;align=left;pointerEvents=1;fillColor=none;" parent="pjTEBmYC1_ZTYM2vS1I1-1822" vertex="1">
          <mxGeometry width="10" height="100" as="geometry" />
        </mxCell>
        <mxCell id="pjTEBmYC1_ZTYM2vS1I1-1824" value="" style="strokeWidth=2;html=1;shape=mxgraph.flowchart.annotation_1;align=left;pointerEvents=1;rotation=-180;fillColor=none;" parent="pjTEBmYC1_ZTYM2vS1I1-1822" vertex="1">
          <mxGeometry x="30" width="10" height="100" as="geometry" />
        </mxCell>
        <mxCell id="pjTEBmYC1_ZTYM2vS1I1-1825" value="" style="rounded=1;whiteSpace=wrap;html=1;absoluteArcSize=1;arcSize=14;strokeWidth=2;fillColor=none;" parent="pjTEBmYC1_ZTYM2vS1I1-1822" vertex="1">
          <mxGeometry x="10" y="10" width="20" height="20" as="geometry" />
        </mxCell>
        <mxCell id="pjTEBmYC1_ZTYM2vS1I1-1826" value="" style="rounded=1;whiteSpace=wrap;html=1;absoluteArcSize=1;arcSize=14;strokeWidth=2;fillColor=none;" parent="pjTEBmYC1_ZTYM2vS1I1-1822" vertex="1">
          <mxGeometry x="10" y="40" width="20" height="20" as="geometry" />
        </mxCell>
        <mxCell id="pjTEBmYC1_ZTYM2vS1I1-1827" value="" style="rounded=1;whiteSpace=wrap;html=1;absoluteArcSize=1;arcSize=14;strokeWidth=2;fillColor=none;" parent="pjTEBmYC1_ZTYM2vS1I1-1822" vertex="1">
          <mxGeometry x="10" y="70" width="20" height="20" as="geometry" />
        </mxCell>
        <mxCell id="pjTEBmYC1_ZTYM2vS1I1-1828" value="" style="group;fillColor=none;" parent="pjTEBmYC1_ZTYM2vS1I1-1801" vertex="1" connectable="0">
          <mxGeometry x="220" y="20" width="130" height="471.5" as="geometry" />
        </mxCell>
        <mxCell id="pjTEBmYC1_ZTYM2vS1I1-1829" value="" style="strokeWidth=2;html=1;shape=mxgraph.flowchart.annotation_1;align=left;pointerEvents=1;fillColor=none;" parent="pjTEBmYC1_ZTYM2vS1I1-1828" vertex="1">
          <mxGeometry width="10" height="100" as="geometry" />
        </mxCell>
        <mxCell id="pjTEBmYC1_ZTYM2vS1I1-1830" value="" style="strokeWidth=2;html=1;shape=mxgraph.flowchart.annotation_1;align=left;pointerEvents=1;rotation=-180;fillColor=none;" parent="pjTEBmYC1_ZTYM2vS1I1-1828" vertex="1">
          <mxGeometry x="30" width="10" height="100" as="geometry" />
        </mxCell>
        <mxCell id="pjTEBmYC1_ZTYM2vS1I1-1831" value="" style="rounded=1;whiteSpace=wrap;html=1;absoluteArcSize=1;arcSize=14;strokeWidth=2;fillColor=none;" parent="pjTEBmYC1_ZTYM2vS1I1-1828" vertex="1">
          <mxGeometry x="10" y="10" width="20" height="20" as="geometry" />
        </mxCell>
        <mxCell id="pjTEBmYC1_ZTYM2vS1I1-1832" value="" style="rounded=1;whiteSpace=wrap;html=1;absoluteArcSize=1;arcSize=14;strokeWidth=2;fillColor=none;" parent="pjTEBmYC1_ZTYM2vS1I1-1828" vertex="1">
          <mxGeometry x="10" y="40" width="20" height="20" as="geometry" />
        </mxCell>
        <mxCell id="pjTEBmYC1_ZTYM2vS1I1-1833" value="" style="rounded=1;whiteSpace=wrap;html=1;absoluteArcSize=1;arcSize=14;strokeWidth=2;fillColor=none;" parent="pjTEBmYC1_ZTYM2vS1I1-1828" vertex="1">
          <mxGeometry x="10" y="70" width="20" height="20" as="geometry" />
        </mxCell>
        <mxCell id="pjTEBmYC1_ZTYM2vS1I1-1834" value="" style="strokeWidth=2;html=1;shape=mxgraph.flowchart.annotation_1;align=left;pointerEvents=1;fillColor=none;rotation=-180;" parent="pjTEBmYC1_ZTYM2vS1I1-1828" vertex="1">
          <mxGeometry x="30" y="-20" width="30" height="140" as="geometry" />
        </mxCell>
        <mxCell id="pjTEBmYC1_ZTYM2vS1I1-1907" value="" style="strokeWidth=2;html=1;shape=mxgraph.flowchart.annotation_1;align=left;pointerEvents=1;rotation=-180;" parent="pjTEBmYC1_ZTYM2vS1I1-1828" vertex="1">
          <mxGeometry x="80" y="-88.5" width="50" height="560" as="geometry" />
        </mxCell>
        <mxCell id="pjTEBmYC1_ZTYM2vS1I1-1835" value="" style="group" parent="pjTEBmYC1_ZTYM2vS1I1-1800" vertex="1" connectable="0">
          <mxGeometry x="20" y="167.5" width="330" height="307.5" as="geometry" />
        </mxCell>
        <mxCell id="pjTEBmYC1_ZTYM2vS1I1-1836" value="" style="rounded=0;whiteSpace=wrap;html=1;strokeColor=none;" parent="pjTEBmYC1_ZTYM2vS1I1-1835" vertex="1">
          <mxGeometry width="280" height="140" as="geometry" />
        </mxCell>
        <mxCell id="pjTEBmYC1_ZTYM2vS1I1-1837" value="" style="strokeWidth=2;html=1;shape=mxgraph.flowchart.annotation_1;align=left;pointerEvents=1;fillColor=none;" parent="pjTEBmYC1_ZTYM2vS1I1-1835" vertex="1">
          <mxGeometry width="30" height="140" as="geometry" />
        </mxCell>
        <mxCell id="pjTEBmYC1_ZTYM2vS1I1-1838" value="" style="group;fillColor=none;" parent="pjTEBmYC1_ZTYM2vS1I1-1835" vertex="1" connectable="0">
          <mxGeometry x="70" y="20" width="110" height="122.5" as="geometry" />
        </mxCell>
        <mxCell id="pjTEBmYC1_ZTYM2vS1I1-1839" value="" style="strokeWidth=2;html=1;shape=mxgraph.flowchart.annotation_1;align=left;pointerEvents=1;fillColor=none;" parent="pjTEBmYC1_ZTYM2vS1I1-1838" vertex="1">
          <mxGeometry width="10" height="100" as="geometry" />
        </mxCell>
        <mxCell id="pjTEBmYC1_ZTYM2vS1I1-1840" value="" style="strokeWidth=2;html=1;shape=mxgraph.flowchart.annotation_1;align=left;pointerEvents=1;rotation=-180;fillColor=none;" parent="pjTEBmYC1_ZTYM2vS1I1-1838" vertex="1">
          <mxGeometry x="30" width="10" height="100" as="geometry" />
        </mxCell>
        <mxCell id="pjTEBmYC1_ZTYM2vS1I1-1841" value="" style="rounded=1;whiteSpace=wrap;html=1;absoluteArcSize=1;arcSize=14;strokeWidth=2;fillColor=none;" parent="pjTEBmYC1_ZTYM2vS1I1-1838" vertex="1">
          <mxGeometry x="10" y="10" width="20" height="20" as="geometry" />
        </mxCell>
        <mxCell id="pjTEBmYC1_ZTYM2vS1I1-1842" value="" style="rounded=1;whiteSpace=wrap;html=1;absoluteArcSize=1;arcSize=14;strokeWidth=2;fillColor=none;" parent="pjTEBmYC1_ZTYM2vS1I1-1838" vertex="1">
          <mxGeometry x="10" y="40" width="20" height="20" as="geometry" />
        </mxCell>
        <mxCell id="pjTEBmYC1_ZTYM2vS1I1-1843" value="" style="rounded=1;whiteSpace=wrap;html=1;absoluteArcSize=1;arcSize=14;strokeWidth=2;fillColor=none;" parent="pjTEBmYC1_ZTYM2vS1I1-1838" vertex="1">
          <mxGeometry x="10" y="70" width="20" height="20" as="geometry" />
        </mxCell>
        <mxCell id="pjTEBmYC1_ZTYM2vS1I1-1844" value="" style="group;fillColor=none;" parent="pjTEBmYC1_ZTYM2vS1I1-1835" vertex="1" connectable="0">
          <mxGeometry x="120" y="20" width="160" height="122.5" as="geometry" />
        </mxCell>
        <mxCell id="pjTEBmYC1_ZTYM2vS1I1-1845" value="" style="strokeWidth=2;html=1;shape=mxgraph.flowchart.annotation_1;align=left;pointerEvents=1;fillColor=none;" parent="pjTEBmYC1_ZTYM2vS1I1-1844" vertex="1">
          <mxGeometry width="10" height="100" as="geometry" />
        </mxCell>
        <mxCell id="pjTEBmYC1_ZTYM2vS1I1-1846" value="" style="strokeWidth=2;html=1;shape=mxgraph.flowchart.annotation_1;align=left;pointerEvents=1;rotation=-180;fillColor=none;" parent="pjTEBmYC1_ZTYM2vS1I1-1844" vertex="1">
          <mxGeometry x="30" width="10" height="100" as="geometry" />
        </mxCell>
        <mxCell id="pjTEBmYC1_ZTYM2vS1I1-1847" value="" style="rounded=1;whiteSpace=wrap;html=1;absoluteArcSize=1;arcSize=14;strokeWidth=2;fillColor=none;" parent="pjTEBmYC1_ZTYM2vS1I1-1844" vertex="1">
          <mxGeometry x="10" y="10" width="20" height="20" as="geometry" />
        </mxCell>
        <mxCell id="pjTEBmYC1_ZTYM2vS1I1-1848" value="" style="rounded=1;whiteSpace=wrap;html=1;absoluteArcSize=1;arcSize=14;strokeWidth=2;fillColor=none;" parent="pjTEBmYC1_ZTYM2vS1I1-1844" vertex="1">
          <mxGeometry x="10" y="40" width="20" height="20" as="geometry" />
        </mxCell>
        <mxCell id="pjTEBmYC1_ZTYM2vS1I1-1849" value="" style="rounded=1;whiteSpace=wrap;html=1;absoluteArcSize=1;arcSize=14;strokeWidth=2;fillColor=none;" parent="pjTEBmYC1_ZTYM2vS1I1-1844" vertex="1">
          <mxGeometry x="10" y="70" width="20" height="20" as="geometry" />
        </mxCell>
        <mxCell id="pjTEBmYC1_ZTYM2vS1I1-1850" value="" style="group;fillColor=none;" parent="pjTEBmYC1_ZTYM2vS1I1-1844" vertex="1" connectable="0">
          <mxGeometry x="50" width="110" height="122.5" as="geometry" />
        </mxCell>
        <mxCell id="pjTEBmYC1_ZTYM2vS1I1-1851" value="" style="strokeWidth=2;html=1;shape=mxgraph.flowchart.annotation_1;align=left;pointerEvents=1;fillColor=none;" parent="pjTEBmYC1_ZTYM2vS1I1-1850" vertex="1">
          <mxGeometry width="10" height="100" as="geometry" />
        </mxCell>
        <mxCell id="pjTEBmYC1_ZTYM2vS1I1-1852" value="" style="strokeWidth=2;html=1;shape=mxgraph.flowchart.annotation_1;align=left;pointerEvents=1;rotation=-180;fillColor=none;" parent="pjTEBmYC1_ZTYM2vS1I1-1850" vertex="1">
          <mxGeometry x="30" width="10" height="100" as="geometry" />
        </mxCell>
        <mxCell id="pjTEBmYC1_ZTYM2vS1I1-1853" value="" style="rounded=1;whiteSpace=wrap;html=1;absoluteArcSize=1;arcSize=14;strokeWidth=2;fillColor=none;" parent="pjTEBmYC1_ZTYM2vS1I1-1850" vertex="1">
          <mxGeometry x="10" y="10" width="20" height="20" as="geometry" />
        </mxCell>
        <mxCell id="pjTEBmYC1_ZTYM2vS1I1-1854" value="" style="rounded=1;whiteSpace=wrap;html=1;absoluteArcSize=1;arcSize=14;strokeWidth=2;fillColor=none;" parent="pjTEBmYC1_ZTYM2vS1I1-1850" vertex="1">
          <mxGeometry x="10" y="40" width="20" height="20" as="geometry" />
        </mxCell>
        <mxCell id="pjTEBmYC1_ZTYM2vS1I1-1855" value="" style="rounded=1;whiteSpace=wrap;html=1;absoluteArcSize=1;arcSize=14;strokeWidth=2;fillColor=none;direction=south;" parent="pjTEBmYC1_ZTYM2vS1I1-1850" vertex="1">
          <mxGeometry x="10" y="70" width="20" height="20" as="geometry" />
        </mxCell>
        <mxCell id="pjTEBmYC1_ZTYM2vS1I1-1856" value="" style="group;fillColor=none;" parent="pjTEBmYC1_ZTYM2vS1I1-1835" vertex="1" connectable="0">
          <mxGeometry x="20" y="20" width="110" height="122.5" as="geometry" />
        </mxCell>
        <mxCell id="pjTEBmYC1_ZTYM2vS1I1-1857" value="" style="strokeWidth=2;html=1;shape=mxgraph.flowchart.annotation_1;align=left;pointerEvents=1;fillColor=none;" parent="pjTEBmYC1_ZTYM2vS1I1-1856" vertex="1">
          <mxGeometry width="10" height="100" as="geometry" />
        </mxCell>
        <mxCell id="pjTEBmYC1_ZTYM2vS1I1-1858" value="" style="strokeWidth=2;html=1;shape=mxgraph.flowchart.annotation_1;align=left;pointerEvents=1;rotation=-180;fillColor=none;" parent="pjTEBmYC1_ZTYM2vS1I1-1856" vertex="1">
          <mxGeometry x="30" width="10" height="100" as="geometry" />
        </mxCell>
        <mxCell id="pjTEBmYC1_ZTYM2vS1I1-1859" value="" style="rounded=1;whiteSpace=wrap;html=1;absoluteArcSize=1;arcSize=14;strokeWidth=2;fillColor=none;" parent="pjTEBmYC1_ZTYM2vS1I1-1856" vertex="1">
          <mxGeometry x="10" y="10" width="20" height="20" as="geometry" />
        </mxCell>
        <mxCell id="pjTEBmYC1_ZTYM2vS1I1-1860" value="" style="rounded=1;whiteSpace=wrap;html=1;absoluteArcSize=1;arcSize=14;strokeWidth=2;fillColor=none;" parent="pjTEBmYC1_ZTYM2vS1I1-1856" vertex="1">
          <mxGeometry x="10" y="40" width="20" height="20" as="geometry" />
        </mxCell>
        <mxCell id="pjTEBmYC1_ZTYM2vS1I1-1861" value="" style="rounded=1;whiteSpace=wrap;html=1;absoluteArcSize=1;arcSize=14;strokeWidth=2;fillColor=none;" parent="pjTEBmYC1_ZTYM2vS1I1-1856" vertex="1">
          <mxGeometry x="10" y="70" width="20" height="20" as="geometry" />
        </mxCell>
        <mxCell id="pjTEBmYC1_ZTYM2vS1I1-1862" value="" style="group;fillColor=none;" parent="pjTEBmYC1_ZTYM2vS1I1-1835" vertex="1" connectable="0">
          <mxGeometry x="220" y="20" width="110" height="287.5" as="geometry" />
        </mxCell>
        <mxCell id="pjTEBmYC1_ZTYM2vS1I1-1863" value="" style="strokeWidth=2;html=1;shape=mxgraph.flowchart.annotation_1;align=left;pointerEvents=1;fillColor=none;" parent="pjTEBmYC1_ZTYM2vS1I1-1862" vertex="1">
          <mxGeometry width="10" height="100" as="geometry" />
        </mxCell>
        <mxCell id="pjTEBmYC1_ZTYM2vS1I1-1864" value="" style="strokeWidth=2;html=1;shape=mxgraph.flowchart.annotation_1;align=left;pointerEvents=1;rotation=-180;fillColor=none;" parent="pjTEBmYC1_ZTYM2vS1I1-1862" vertex="1">
          <mxGeometry x="30" width="10" height="100" as="geometry" />
        </mxCell>
        <mxCell id="pjTEBmYC1_ZTYM2vS1I1-1865" value="" style="rounded=1;whiteSpace=wrap;html=1;absoluteArcSize=1;arcSize=14;strokeWidth=2;fillColor=none;" parent="pjTEBmYC1_ZTYM2vS1I1-1862" vertex="1">
          <mxGeometry x="10" y="10" width="20" height="20" as="geometry" />
        </mxCell>
        <mxCell id="pjTEBmYC1_ZTYM2vS1I1-1866" value="" style="rounded=1;whiteSpace=wrap;html=1;absoluteArcSize=1;arcSize=14;strokeWidth=2;fillColor=none;" parent="pjTEBmYC1_ZTYM2vS1I1-1862" vertex="1">
          <mxGeometry x="10" y="40" width="20" height="20" as="geometry" />
        </mxCell>
        <mxCell id="pjTEBmYC1_ZTYM2vS1I1-1867" value="" style="rounded=1;whiteSpace=wrap;html=1;absoluteArcSize=1;arcSize=14;strokeWidth=2;fillColor=none;" parent="pjTEBmYC1_ZTYM2vS1I1-1862" vertex="1">
          <mxGeometry x="10" y="70" width="20" height="20" as="geometry" />
        </mxCell>
        <mxCell id="pjTEBmYC1_ZTYM2vS1I1-1868" value="" style="strokeWidth=2;html=1;shape=mxgraph.flowchart.annotation_1;align=left;pointerEvents=1;fillColor=none;rotation=-180;" parent="pjTEBmYC1_ZTYM2vS1I1-1862" vertex="1">
          <mxGeometry x="30" y="-20" width="30" height="140" as="geometry" />
        </mxCell>
        <mxCell id="pjTEBmYC1_ZTYM2vS1I1-1869" value="" style="strokeWidth=2;html=1;shape=mxgraph.flowchart.annotation_1;align=left;pointerEvents=1;rotation=-180;" parent="pjTEBmYC1_ZTYM2vS1I1-1862" vertex="1">
          <mxGeometry x="30" y="-190" width="50" height="477.5" as="geometry" />
        </mxCell>
        <mxCell id="pjTEBmYC1_ZTYM2vS1I1-1870" value="" style="group" parent="pjTEBmYC1_ZTYM2vS1I1-1800" vertex="1" connectable="0">
          <mxGeometry x="20" y="317.5" width="330" height="142.5" as="geometry" />
        </mxCell>
        <mxCell id="pjTEBmYC1_ZTYM2vS1I1-1871" value="" style="rounded=0;whiteSpace=wrap;html=1;strokeColor=none;" parent="pjTEBmYC1_ZTYM2vS1I1-1870" vertex="1">
          <mxGeometry width="280" height="140" as="geometry" />
        </mxCell>
        <mxCell id="pjTEBmYC1_ZTYM2vS1I1-1872" value="" style="strokeWidth=2;html=1;shape=mxgraph.flowchart.annotation_1;align=left;pointerEvents=1;fillColor=none;" parent="pjTEBmYC1_ZTYM2vS1I1-1870" vertex="1">
          <mxGeometry width="30" height="140" as="geometry" />
        </mxCell>
        <mxCell id="pjTEBmYC1_ZTYM2vS1I1-1873" value="" style="group;fillColor=none;" parent="pjTEBmYC1_ZTYM2vS1I1-1870" vertex="1" connectable="0">
          <mxGeometry x="70" y="20" width="110" height="122.5" as="geometry" />
        </mxCell>
        <mxCell id="pjTEBmYC1_ZTYM2vS1I1-1874" value="" style="strokeWidth=2;html=1;shape=mxgraph.flowchart.annotation_1;align=left;pointerEvents=1;fillColor=none;" parent="pjTEBmYC1_ZTYM2vS1I1-1873" vertex="1">
          <mxGeometry width="10" height="100" as="geometry" />
        </mxCell>
        <mxCell id="pjTEBmYC1_ZTYM2vS1I1-1875" value="" style="strokeWidth=2;html=1;shape=mxgraph.flowchart.annotation_1;align=left;pointerEvents=1;rotation=-180;fillColor=none;" parent="pjTEBmYC1_ZTYM2vS1I1-1873" vertex="1">
          <mxGeometry x="30" width="10" height="100" as="geometry" />
        </mxCell>
        <mxCell id="pjTEBmYC1_ZTYM2vS1I1-1876" value="" style="rounded=1;whiteSpace=wrap;html=1;absoluteArcSize=1;arcSize=14;strokeWidth=2;fillColor=none;" parent="pjTEBmYC1_ZTYM2vS1I1-1873" vertex="1">
          <mxGeometry x="10" y="10" width="20" height="20" as="geometry" />
        </mxCell>
        <mxCell id="pjTEBmYC1_ZTYM2vS1I1-1877" value="" style="rounded=1;whiteSpace=wrap;html=1;absoluteArcSize=1;arcSize=14;strokeWidth=2;fillColor=none;" parent="pjTEBmYC1_ZTYM2vS1I1-1873" vertex="1">
          <mxGeometry x="10" y="40" width="20" height="20" as="geometry" />
        </mxCell>
        <mxCell id="pjTEBmYC1_ZTYM2vS1I1-1878" value="" style="rounded=1;whiteSpace=wrap;html=1;absoluteArcSize=1;arcSize=14;strokeWidth=2;fillColor=none;" parent="pjTEBmYC1_ZTYM2vS1I1-1873" vertex="1">
          <mxGeometry x="10" y="70" width="20" height="20" as="geometry" />
        </mxCell>
        <mxCell id="pjTEBmYC1_ZTYM2vS1I1-1879" value="" style="group;fillColor=none;" parent="pjTEBmYC1_ZTYM2vS1I1-1870" vertex="1" connectable="0">
          <mxGeometry x="120" y="20" width="160" height="122.5" as="geometry" />
        </mxCell>
        <mxCell id="pjTEBmYC1_ZTYM2vS1I1-1880" value="" style="strokeWidth=2;html=1;shape=mxgraph.flowchart.annotation_1;align=left;pointerEvents=1;fillColor=none;" parent="pjTEBmYC1_ZTYM2vS1I1-1879" vertex="1">
          <mxGeometry width="10" height="100" as="geometry" />
        </mxCell>
        <mxCell id="pjTEBmYC1_ZTYM2vS1I1-1881" value="" style="strokeWidth=2;html=1;shape=mxgraph.flowchart.annotation_1;align=left;pointerEvents=1;rotation=-180;fillColor=none;" parent="pjTEBmYC1_ZTYM2vS1I1-1879" vertex="1">
          <mxGeometry x="30" width="10" height="100" as="geometry" />
        </mxCell>
        <mxCell id="pjTEBmYC1_ZTYM2vS1I1-1882" value="" style="rounded=1;whiteSpace=wrap;html=1;absoluteArcSize=1;arcSize=14;strokeWidth=2;fillColor=none;" parent="pjTEBmYC1_ZTYM2vS1I1-1879" vertex="1">
          <mxGeometry x="10" y="10" width="20" height="20" as="geometry" />
        </mxCell>
        <mxCell id="pjTEBmYC1_ZTYM2vS1I1-1883" value="" style="rounded=1;whiteSpace=wrap;html=1;absoluteArcSize=1;arcSize=14;strokeWidth=2;fillColor=none;" parent="pjTEBmYC1_ZTYM2vS1I1-1879" vertex="1">
          <mxGeometry x="10" y="40" width="20" height="20" as="geometry" />
        </mxCell>
        <mxCell id="pjTEBmYC1_ZTYM2vS1I1-1884" value="" style="rounded=1;whiteSpace=wrap;html=1;absoluteArcSize=1;arcSize=14;strokeWidth=2;fillColor=none;" parent="pjTEBmYC1_ZTYM2vS1I1-1879" vertex="1">
          <mxGeometry x="10" y="70" width="20" height="20" as="geometry" />
        </mxCell>
        <mxCell id="pjTEBmYC1_ZTYM2vS1I1-1885" value="" style="group;fillColor=none;" parent="pjTEBmYC1_ZTYM2vS1I1-1879" vertex="1" connectable="0">
          <mxGeometry x="50" width="110" height="122.5" as="geometry" />
        </mxCell>
        <mxCell id="pjTEBmYC1_ZTYM2vS1I1-1886" value="" style="strokeWidth=2;html=1;shape=mxgraph.flowchart.annotation_1;align=left;pointerEvents=1;fillColor=none;" parent="pjTEBmYC1_ZTYM2vS1I1-1885" vertex="1">
          <mxGeometry width="10" height="100" as="geometry" />
        </mxCell>
        <mxCell id="pjTEBmYC1_ZTYM2vS1I1-1887" value="" style="strokeWidth=2;html=1;shape=mxgraph.flowchart.annotation_1;align=left;pointerEvents=1;rotation=-180;fillColor=none;" parent="pjTEBmYC1_ZTYM2vS1I1-1885" vertex="1">
          <mxGeometry x="30" width="10" height="100" as="geometry" />
        </mxCell>
        <mxCell id="pjTEBmYC1_ZTYM2vS1I1-1888" value="" style="rounded=1;whiteSpace=wrap;html=1;absoluteArcSize=1;arcSize=14;strokeWidth=2;fillColor=none;" parent="pjTEBmYC1_ZTYM2vS1I1-1885" vertex="1">
          <mxGeometry x="10" y="10" width="20" height="20" as="geometry" />
        </mxCell>
        <mxCell id="pjTEBmYC1_ZTYM2vS1I1-1889" value="" style="rounded=1;whiteSpace=wrap;html=1;absoluteArcSize=1;arcSize=14;strokeWidth=2;fillColor=none;" parent="pjTEBmYC1_ZTYM2vS1I1-1885" vertex="1">
          <mxGeometry x="10" y="40" width="20" height="20" as="geometry" />
        </mxCell>
        <mxCell id="pjTEBmYC1_ZTYM2vS1I1-1890" value="" style="rounded=1;whiteSpace=wrap;html=1;absoluteArcSize=1;arcSize=14;strokeWidth=2;fillColor=none;direction=south;" parent="pjTEBmYC1_ZTYM2vS1I1-1885" vertex="1">
          <mxGeometry x="10" y="70" width="20" height="20" as="geometry" />
        </mxCell>
        <mxCell id="pjTEBmYC1_ZTYM2vS1I1-1891" value="" style="group;fillColor=none;" parent="pjTEBmYC1_ZTYM2vS1I1-1870" vertex="1" connectable="0">
          <mxGeometry x="20" y="20" width="110" height="122.5" as="geometry" />
        </mxCell>
        <mxCell id="pjTEBmYC1_ZTYM2vS1I1-1892" value="" style="strokeWidth=2;html=1;shape=mxgraph.flowchart.annotation_1;align=left;pointerEvents=1;fillColor=none;" parent="pjTEBmYC1_ZTYM2vS1I1-1891" vertex="1">
          <mxGeometry width="10" height="100" as="geometry" />
        </mxCell>
        <mxCell id="pjTEBmYC1_ZTYM2vS1I1-1893" value="" style="strokeWidth=2;html=1;shape=mxgraph.flowchart.annotation_1;align=left;pointerEvents=1;rotation=-180;fillColor=none;" parent="pjTEBmYC1_ZTYM2vS1I1-1891" vertex="1">
          <mxGeometry x="30" width="10" height="100" as="geometry" />
        </mxCell>
        <mxCell id="pjTEBmYC1_ZTYM2vS1I1-1894" value="" style="rounded=1;whiteSpace=wrap;html=1;absoluteArcSize=1;arcSize=14;strokeWidth=2;fillColor=none;" parent="pjTEBmYC1_ZTYM2vS1I1-1891" vertex="1">
          <mxGeometry x="10" y="10" width="20" height="20" as="geometry" />
        </mxCell>
        <mxCell id="pjTEBmYC1_ZTYM2vS1I1-1895" value="" style="rounded=1;whiteSpace=wrap;html=1;absoluteArcSize=1;arcSize=14;strokeWidth=2;fillColor=none;" parent="pjTEBmYC1_ZTYM2vS1I1-1891" vertex="1">
          <mxGeometry x="10" y="40" width="20" height="20" as="geometry" />
        </mxCell>
        <mxCell id="pjTEBmYC1_ZTYM2vS1I1-1896" value="" style="rounded=1;whiteSpace=wrap;html=1;absoluteArcSize=1;arcSize=14;strokeWidth=2;fillColor=none;" parent="pjTEBmYC1_ZTYM2vS1I1-1891" vertex="1">
          <mxGeometry x="10" y="70" width="20" height="20" as="geometry" />
        </mxCell>
        <mxCell id="pjTEBmYC1_ZTYM2vS1I1-1897" value="" style="group;fillColor=none;" parent="pjTEBmYC1_ZTYM2vS1I1-1870" vertex="1" connectable="0">
          <mxGeometry x="220" y="20" width="110" height="122.5" as="geometry" />
        </mxCell>
        <mxCell id="pjTEBmYC1_ZTYM2vS1I1-1898" value="" style="strokeWidth=2;html=1;shape=mxgraph.flowchart.annotation_1;align=left;pointerEvents=1;fillColor=none;" parent="pjTEBmYC1_ZTYM2vS1I1-1897" vertex="1">
          <mxGeometry width="10" height="100" as="geometry" />
        </mxCell>
        <mxCell id="pjTEBmYC1_ZTYM2vS1I1-1899" value="" style="strokeWidth=2;html=1;shape=mxgraph.flowchart.annotation_1;align=left;pointerEvents=1;rotation=-180;fillColor=none;" parent="pjTEBmYC1_ZTYM2vS1I1-1897" vertex="1">
          <mxGeometry x="30" width="10" height="100" as="geometry" />
        </mxCell>
        <mxCell id="pjTEBmYC1_ZTYM2vS1I1-1900" value="" style="rounded=1;whiteSpace=wrap;html=1;absoluteArcSize=1;arcSize=14;strokeWidth=2;fillColor=none;" parent="pjTEBmYC1_ZTYM2vS1I1-1897" vertex="1">
          <mxGeometry x="10" y="10" width="20" height="20" as="geometry" />
        </mxCell>
        <mxCell id="pjTEBmYC1_ZTYM2vS1I1-1901" value="" style="rounded=1;whiteSpace=wrap;html=1;absoluteArcSize=1;arcSize=14;strokeWidth=2;fillColor=none;" parent="pjTEBmYC1_ZTYM2vS1I1-1897" vertex="1">
          <mxGeometry x="10" y="40" width="20" height="20" as="geometry" />
        </mxCell>
        <mxCell id="pjTEBmYC1_ZTYM2vS1I1-1902" value="" style="rounded=1;whiteSpace=wrap;html=1;absoluteArcSize=1;arcSize=14;strokeWidth=2;fillColor=none;" parent="pjTEBmYC1_ZTYM2vS1I1-1897" vertex="1">
          <mxGeometry x="10" y="70" width="20" height="20" as="geometry" />
        </mxCell>
        <mxCell id="pjTEBmYC1_ZTYM2vS1I1-1903" value="" style="strokeWidth=2;html=1;shape=mxgraph.flowchart.annotation_1;align=left;pointerEvents=1;fillColor=none;rotation=-180;" parent="pjTEBmYC1_ZTYM2vS1I1-1897" vertex="1">
          <mxGeometry x="30" y="-20" width="30" height="140" as="geometry" />
        </mxCell>
        <mxCell id="pjTEBmYC1_ZTYM2vS1I1-1904" value="" style="strokeWidth=2;html=1;shape=mxgraph.flowchart.annotation_1;align=left;pointerEvents=1;" parent="pjTEBmYC1_ZTYM2vS1I1-1800" vertex="1">
          <mxGeometry width="50" height="477.5" as="geometry" />
        </mxCell>
        <mxCell id="pjTEBmYC1_ZTYM2vS1I1-1914" value="&lt;div style=&quot;font-size: 20px;&quot;&gt;&lt;font style=&quot;font-size: 20px;&quot;&gt;voxel based features&lt;/font&gt;&lt;/div&gt;&lt;div style=&quot;font-size: 20px;&quot;&gt;&lt;font style=&quot;font-size: 20px;&quot;&gt;&lt;br&gt;&lt;/font&gt;&lt;/div&gt;" style="text;html=1;align=center;verticalAlign=middle;whiteSpace=wrap;rounded=0;" parent="pjTEBmYC1_ZTYM2vS1I1-1800" vertex="1">
          <mxGeometry x="-20" y="509" width="390" height="30" as="geometry" />
        </mxCell>
        <mxCell id="pjTEBmYC1_ZTYM2vS1I1-1918" value="&lt;font style=&quot;font-size: 18px;&quot;&gt;single voxel based feature vector&lt;br&gt;&lt;/font&gt;" style="text;html=1;align=center;verticalAlign=middle;whiteSpace=wrap;rounded=0;" parent="pjTEBmYC1_ZTYM2vS1I1-1800" vertex="1">
          <mxGeometry x="380" y="149" width="200" height="30" as="geometry" />
        </mxCell>
        <mxCell id="pjTEBmYC1_ZTYM2vS1I1-1925" value="&lt;font style=&quot;font-size: 18px;&quot;&gt;non-voxel based&lt;br&gt;feature vector&lt;br&gt;&lt;/font&gt;" style="text;html=1;align=center;verticalAlign=middle;whiteSpace=wrap;rounded=0;" parent="pjTEBmYC1_ZTYM2vS1I1-1800" vertex="1">
          <mxGeometry x="350" y="329" width="250" height="30" as="geometry" />
        </mxCell>
        <mxCell id="pjTEBmYC1_ZTYM2vS1I1-1906" value="" style="strokeWidth=2;html=1;shape=mxgraph.flowchart.annotation_1;align=left;pointerEvents=1;" parent="1" vertex="1">
          <mxGeometry x="150" y="210" width="50" height="560" as="geometry" />
        </mxCell>
        <mxCell id="pjTEBmYC1_ZTYM2vS1I1-1908" value="" style="group;fillColor=none;" parent="1" vertex="1" connectable="0">
          <mxGeometry x="630" y="300" width="130" height="130" as="geometry" />
        </mxCell>
        <mxCell id="pjTEBmYC1_ZTYM2vS1I1-1909" value="" style="strokeWidth=2;html=1;shape=mxgraph.flowchart.annotation_1;align=left;pointerEvents=1;fillColor=none;" parent="pjTEBmYC1_ZTYM2vS1I1-1908" vertex="1">
          <mxGeometry width="10" height="100" as="geometry" />
        </mxCell>
        <mxCell id="pjTEBmYC1_ZTYM2vS1I1-1910" value="" style="strokeWidth=2;html=1;shape=mxgraph.flowchart.annotation_1;align=left;pointerEvents=1;rotation=-180;fillColor=none;" parent="pjTEBmYC1_ZTYM2vS1I1-1908" vertex="1">
          <mxGeometry x="30" width="10" height="100" as="geometry" />
        </mxCell>
        <mxCell id="pjTEBmYC1_ZTYM2vS1I1-1911" value="" style="rounded=1;whiteSpace=wrap;html=1;absoluteArcSize=1;arcSize=14;strokeWidth=2;fillColor=none;" parent="pjTEBmYC1_ZTYM2vS1I1-1908" vertex="1">
          <mxGeometry x="10" y="10" width="20" height="20" as="geometry" />
        </mxCell>
        <mxCell id="pjTEBmYC1_ZTYM2vS1I1-1912" value="" style="rounded=1;whiteSpace=wrap;html=1;absoluteArcSize=1;arcSize=14;strokeWidth=2;fillColor=none;" parent="pjTEBmYC1_ZTYM2vS1I1-1908" vertex="1">
          <mxGeometry x="10" y="40" width="20" height="20" as="geometry" />
        </mxCell>
        <mxCell id="pjTEBmYC1_ZTYM2vS1I1-1913" value="" style="rounded=1;whiteSpace=wrap;html=1;absoluteArcSize=1;arcSize=14;strokeWidth=2;fillColor=none;" parent="pjTEBmYC1_ZTYM2vS1I1-1908" vertex="1">
          <mxGeometry x="10" y="70" width="20" height="20" as="geometry" />
        </mxCell>
        <mxCell id="pjTEBmYC1_ZTYM2vS1I1-1916" value="" style="shape=flexArrow;endArrow=classic;html=1;rounded=0;entryX=0;entryY=0.5;entryDx=0;entryDy=0;entryPerimeter=0;fillColor=#FF9999;" parent="1" target="pjTEBmYC1_ZTYM2vS1I1-1909" edge="1">
          <mxGeometry width="50" height="50" relative="1" as="geometry">
            <mxPoint x="460" y="350" as="sourcePoint" />
            <mxPoint x="680" y="400" as="targetPoint" />
          </mxGeometry>
        </mxCell>
        <mxCell id="pjTEBmYC1_ZTYM2vS1I1-1919" value="" style="group;fillColor=none;" parent="1" vertex="1" connectable="0">
          <mxGeometry x="630" y="470" width="110" height="122.5" as="geometry" />
        </mxCell>
        <mxCell id="pjTEBmYC1_ZTYM2vS1I1-1920" value="" style="strokeWidth=2;html=1;shape=mxgraph.flowchart.annotation_1;align=left;pointerEvents=1;fillColor=none;" parent="pjTEBmYC1_ZTYM2vS1I1-1919" vertex="1">
          <mxGeometry width="10" height="100" as="geometry" />
        </mxCell>
        <mxCell id="pjTEBmYC1_ZTYM2vS1I1-1921" value="" style="strokeWidth=2;html=1;shape=mxgraph.flowchart.annotation_1;align=left;pointerEvents=1;rotation=-180;fillColor=none;" parent="pjTEBmYC1_ZTYM2vS1I1-1919" vertex="1">
          <mxGeometry x="30" width="10" height="100" as="geometry" />
        </mxCell>
        <mxCell id="pjTEBmYC1_ZTYM2vS1I1-1922" value="" style="rounded=1;whiteSpace=wrap;html=1;absoluteArcSize=1;arcSize=14;strokeWidth=2;fillColor=none;" parent="pjTEBmYC1_ZTYM2vS1I1-1919" vertex="1">
          <mxGeometry x="10" y="10" width="20" height="20" as="geometry" />
        </mxCell>
        <mxCell id="pjTEBmYC1_ZTYM2vS1I1-1923" value="" style="rounded=1;whiteSpace=wrap;html=1;absoluteArcSize=1;arcSize=14;strokeWidth=2;fillColor=none;" parent="pjTEBmYC1_ZTYM2vS1I1-1919" vertex="1">
          <mxGeometry x="10" y="40" width="20" height="20" as="geometry" />
        </mxCell>
        <mxCell id="pjTEBmYC1_ZTYM2vS1I1-1924" value="" style="rounded=1;whiteSpace=wrap;html=1;absoluteArcSize=1;arcSize=14;strokeWidth=2;fillColor=none;" parent="pjTEBmYC1_ZTYM2vS1I1-1919" vertex="1">
          <mxGeometry x="10" y="70" width="20" height="20" as="geometry" />
        </mxCell>
        <mxCell id="pjTEBmYC1_ZTYM2vS1I1-1926" value="" style="shape=link;html=1;rounded=0;" parent="1" edge="1">
          <mxGeometry width="100" relative="1" as="geometry">
            <mxPoint x="680" y="290" as="sourcePoint" />
            <mxPoint x="1150" y="410" as="targetPoint" />
          </mxGeometry>
        </mxCell>
        <mxCell id="pjTEBmYC1_ZTYM2vS1I1-1928" value="" style="shape=link;html=1;rounded=0;" parent="1" edge="1">
          <mxGeometry width="100" relative="1" as="geometry">
            <mxPoint x="690" y="580" as="sourcePoint" />
            <mxPoint x="1150" y="450" as="targetPoint" />
          </mxGeometry>
        </mxCell>
        <mxCell id="pjTEBmYC1_ZTYM2vS1I1-1929" value="" style="rounded=1;whiteSpace=wrap;html=1;absoluteArcSize=1;arcSize=14;strokeWidth=2;fillColor=none;" parent="1" vertex="1">
          <mxGeometry x="1160" y="420" width="20" height="20" as="geometry" />
        </mxCell>
        <mxCell id="pjTEBmYC1_ZTYM2vS1I1-1930" value="&lt;font style=&quot;font-size: 18px;&quot;&gt;single voxel prediction&lt;br&gt;&lt;/font&gt;" style="text;html=1;align=center;verticalAlign=middle;whiteSpace=wrap;rounded=0;" parent="1" vertex="1">
          <mxGeometry x="1070" y="480" width="200" height="30" as="geometry" />
        </mxCell>
        <mxCell id="pjTEBmYC1_ZTYM2vS1I1-1931" value="&lt;font style=&quot;font-size: 26px;&quot;&gt;&lt;b&gt;MODEL&lt;/b&gt;&lt;/font&gt;" style="text;html=1;align=center;verticalAlign=middle;whiteSpace=wrap;rounded=0;" parent="1" vertex="1">
          <mxGeometry x="830" y="420" width="200" height="30" as="geometry" />
        </mxCell>
      </root>
    </mxGraphModel>
  </diagram>
</mxfile>
